<svg xmlns="http://www.w3.org/2000/svg" xmlns:xlink="http://www.w3.org/1999/xlink" width="1536" zoomAndPan="magnify" viewBox="0 0 1152 767.999994" height="1024" preserveAspectRatio="xMidYMid meet" version="1.0"><path fill="#00adc0" d="M 998.214844 159.160156 C 1017.917969 169.679688 1035.339844 185.191406 1047.269531 204.125 C 1055.738281 217.835938 1062.054688 232.1875 1065.777344 247.878906 L 1066.273438 249.917969 C 1071.558594 272.027344 1072.226562 295.621094 1068.9375 318.078125 L 1068.722656 319.554688 C 1068.261719 322.644531 1067.773438 325.730469 1067.253906 328.808594 C 1067.039062 330.105469 1066.839844 331.402344 1066.644531 332.699219 C 1065.273438 341.074219 1062.578125 349.0625 1059.976562 357.121094 L 1059.417969 358.871094 C 1057.515625 364.808594 1055.457031 370.609375 1052.9375 376.320312 C 1052.566406 377.1875 1052.195312 378.054688 1051.824219 378.921875 C 1048.925781 385.648438 1045.6875 392.140625 1042.191406 398.574219 C 1041.484375 399.878906 1040.78125 401.191406 1040.089844 402.503906 C 1036.113281 409.886719 1031.402344 416.789062 1026.691406 423.71875 C 1025.503906 425.472656 1024.328125 427.230469 1023.152344 428.996094 C 1019.519531 434.429688 1015.761719 439.597656 1011.429688 444.5 C 1009.996094 446.082031 1009.996094 446.082031 1008.777344 448 L 1007.496094 448 L 1007.117188 449.289062 C 1005.851562 451.972656 1004.011719 453.984375 1002.054688 456.199219 L 1000.90625 457.542969 C 998.792969 459.964844 998.792969 459.964844 997.894531 460.800781 L 996.617188 460.800781 L 996.15625 461.871094 C 995.136719 463.722656 993.871094 465.148438 992.457031 466.71875 L 990.917969 468.449219 L 989.578125 469.761719 L 988.296875 469.761719 L 987.800781 470.910156 C 986.9375 472.464844 986.066406 473.273438 984.695312 474.398438 C 982.886719 475.925781 981.207031 477.484375 979.578125 479.199219 C 976.289062 482.542969 972.554688 485.335938 968.832031 488.171875 C 967.886719 488.90625 966.972656 489.675781 966.0625 490.449219 L 964.617188 491.519531 L 962.695312 491.519531 L 962.054688 493.441406 C 960.949219 494.300781 960.949219 494.300781 959.507812 495.171875 L 957.902344 496.144531 L 956.175781 497.160156 L 954.414062 498.203125 C 942.53125 505.121094 929.148438 509.378906 915.335938 509.679688 C 906.960938 509.488281 899.230469 508.011719 891.65625 504.320312 L 891.65625 503.039062 L 890.515625 502.863281 C 889.097656 502.398438 889.097656 502.398438 887.957031 501.398438 C 883.628906 496.375 881.75 491.988281 880.480469 485.449219 C 878.953125 475.429688 881.371094 464.996094 884.695312 455.558594 C 888.414062 446.183594 893.761719 438.5 901.535156 432.078125 C 906.941406 428.148438 912.914062 425.308594 919.585938 424.457031 C 922.886719 424.15625 926.183594 424.082031 929.496094 424.039062 L 931.597656 423.996094 C 936.574219 424.011719 940.84375 424.894531 945.417969 426.878906 C 948.851562 428.890625 951.273438 431.371094 953.652344 434.542969 C 955.453125 437.773438 955.1875 441.527344 955.160156 445.125 C 954.855469 449.886719 953.738281 454.816406 951.175781 458.878906 C 947.441406 464.269531 943.417969 467.828125 937.59375 470.820312 C 932.148438 473.324219 926.953125 474.496094 921.097656 475.519531 C 920.226562 475.734375 919.359375 475.960938 918.496094 476.199219 C 914.746094 477.195312 910.855469 477.574219 907.015625 478.078125 C 907.214844 478.988281 907.414062 479.894531 907.617188 480.800781 L 907.953125 482.328125 C 908.261719 483.691406 908.59375 485.046875 908.9375 486.398438 C 913.945312 488.308594 919.289062 488.136719 924.535156 487.359375 C 937.417969 484.636719 947.621094 477.546875 957.667969 469.4375 C 958.636719 468.660156 959.613281 467.890625 960.59375 467.128906 C 962.257812 465.753906 963.746094 464.265625 965.257812 462.71875 C 965.910156 462.070312 966.570312 461.421875 967.226562 460.773438 L 969.257812 458.761719 L 970.304688 457.726562 C 972.171875 455.921875 972.171875 455.921875 973.578125 453.761719 L 974.855469 453.761719 L 975.292969 452.703125 C 976.386719 450.753906 977.847656 449.246094 979.375 447.640625 C 990.828125 435.359375 1000.640625 421.332031 1009.417969 407.039062 L 1010.253906 405.699219 C 1014.769531 398.453125 1018.78125 391.132812 1022.285156 383.34375 C 1022.761719 382.292969 1023.246094 381.246094 1023.742188 380.203125 C 1033.707031 359.023438 1039.992188 336.460938 1042.527344 313.207031 C 1042.632812 312.257812 1042.75 311.308594 1042.878906 310.359375 C 1046.167969 285.582031 1041.859375 258.515625 1032.457031 235.519531 C 1029.289062 228.542969 1025.734375 221.890625 1021.144531 215.75 L 1020.296875 214.398438 L 1020.296875 212.480469 L 1018.375 211.839844 C 1017.488281 210.71875 1016.636719 209.570312 1015.816406 208.398438 C 1012.804688 204.304688 1009.367188 200.710938 1005.777344 197.121094 L 1004.210938 195.542969 C 1001.976562 193.335938 999.796875 191.261719 997.203125 189.480469 L 995.335938 188.160156 L 995.335938 186.878906 L 993.984375 186.414062 C 991.8125 185.457031 990.0625 184.226562 988.136719 182.839844 C 984.890625 180.535156 981.601562 178.464844 978.054688 176.640625 L 978.054688 175.359375 L 976.769531 175.183594 C 974.789062 174.703125 973.066406 173.945312 971.230469 173.070312 C 954.75 165.242188 936.867188 161.804688 918.703125 161.835938 L 916.207031 161.832031 C 914.476562 161.832031 912.746094 161.832031 911.015625 161.835938 C 908.824219 161.839844 906.628906 161.839844 904.433594 161.835938 C 902.308594 161.832031 900.1875 161.832031 898.0625 161.835938 L 895.714844 161.832031 C 888.050781 161.851562 880.632812 162.46875 873.097656 163.839844 L 869.195312 164.507812 C 840.585938 169.558594 813.347656 179.144531 785.933594 188.503906 C 780.113281 190.496094 774.285156 192.480469 768.460938 194.464844 C 754.898438 199.085938 741.285156 203.425781 727.503906 207.359375 C 725.613281 207.898438 723.722656 208.445312 721.832031 208.996094 C 714.511719 211.105469 707.105469 212.800781 699.65625 214.398438 L 697.808594 214.800781 C 676.335938 219.40625 654.507812 222.335938 632.5625 223.277344 C 631.5625 223.335938 630.5625 223.417969 629.5625 223.511719 C 622.828125 224.136719 616.09375 224.117188 609.332031 224.117188 C 607.242188 224.121094 605.152344 224.132812 603.0625 224.144531 C 594.785156 224.167969 586.652344 223.792969 578.421875 222.898438 C 576.824219 222.726562 575.222656 222.566406 573.621094 222.40625 C 541.027344 219.167969 507.632812 211.117188 478.167969 196.449219 C 476.808594 195.78125 475.441406 195.125 474.070312 194.476562 C 462.6875 189.007812 451.921875 182.417969 441.375 175.480469 L 439.898438 174.515625 C 438.78125 173.765625 437.695312 172.96875 436.617188 172.160156 L 436.617188 170.878906 L 435.097656 170.28125 C 433.417969 169.601562 433.417969 169.601562 432.136719 168.960938 L 432.136719 167.679688 L 429.578125 167.039062 L 429.578125 165.761719 L 428.214844 165.441406 C 425.929688 164.246094 424.761719 162.875 423.285156 160.78125 C 422.507812 159.308594 422.238281 158.335938 422.175781 156.679688 C 422.535156 154.238281 422.535156 154.238281 423.296875 152.359375 C 424.457031 151.039062 424.457031 151.039062 425.976562 150.441406 C 427.996094 150.390625 429.027344 150.820312 430.855469 151.679688 C 432.183594 152.582031 433.492188 153.515625 434.777344 154.480469 C 444.585938 161.652344 455.066406 168.050781 465.96875 173.40625 C 468.527344 174.660156 471.050781 175.976562 473.546875 177.347656 C 477.882812 179.726562 482.261719 181.679688 486.875 183.449219 C 488.765625 184.195312 490.625 185.003906 492.457031 185.878906 C 505.746094 192.007812 520.070312 196.113281 534.308594 199.328125 C 535.675781 199.648438 537.035156 199.992188 538.394531 200.355469 C 557.882812 205.542969 578.449219 207.457031 598.574219 207.46875 L 601.65625 207.472656 C 603.796875 207.476562 605.941406 207.480469 608.082031 207.476562 C 610.242188 207.476562 612.402344 207.484375 614.566406 207.492188 C 626.570312 207.539062 638.433594 207.457031 650.375 206.078125 L 652.667969 205.847656 C 684.46875 202.566406 716.058594 195.757812 746.375 185.601562 C 747.648438 185.175781 748.921875 184.753906 750.191406 184.335938 C 755.15625 182.6875 760.121094 181.03125 765.078125 179.371094 C 768.242188 178.3125 771.402344 177.257812 774.566406 176.210938 L 776.941406 175.421875 C 778.382812 174.941406 779.828125 174.464844 781.273438 173.988281 C 784.363281 172.960938 787.4375 171.910156 790.480469 170.75 C 804.378906 165.46875 818.488281 160.886719 832.777344 156.800781 L 834.101562 156.417969 C 848.421875 152.277344 862.890625 149.078125 877.578125 146.558594 L 879.300781 146.257812 C 918.03125 139.546875 962.765625 140.835938 998.214844 159.160156 M 918.535156 442.878906 C 915.105469 445.820312 912.980469 449.082031 911.457031 453.320312 C 910.421875 456.183594 910.421875 456.183594 910.457031 459.148438 L 910.855469 460.160156 C 918.484375 459.1875 918.484375 459.1875 925.269531 455.84375 L 926.214844 455.039062 L 927.738281 453.761719 C 928.988281 452.222656 929.550781 451.210938 930.054688 449.28125 C 930.253906 447.125 930.394531 445.023438 930.054688 442.878906 C 929.339844 441.679688 929.339844 441.679688 928.136719 440.960938 C 926.640625 440.65625 926.640625 440.65625 925.015625 440.71875 L 923.382812 440.707031 C 921.363281 441.019531 920.203125 441.703125 918.535156 442.878906 M 448.136719 554.878906 C 451.816406 556.308594 455.289062 558.242188 458.777344 560.078125 C 460.636719 561.046875 462.5 562.007812 464.363281 562.964844 L 465.746094 563.679688 C 469.71875 565.710938 473.765625 567.519531 477.871094 569.265625 C 480.074219 570.214844 482.246094 571.214844 484.417969 572.238281 C 487.8125 573.820312 491.253906 575.195312 494.761719 576.511719 C 496.613281 577.21875 498.433594 577.976562 500.257812 578.757812 C 508.390625 582.175781 516.683594 585.140625 525.140625 587.648438 C 528.089844 588.527344 531.003906 589.527344 533.917969 590.523438 C 543.351562 593.714844 552.980469 596.242188 562.695312 598.398438 L 564.148438 598.722656 C 566.082031 599.15625 568.011719 599.585938 569.941406 600.011719 C 572.003906 600.460938 574.0625 600.925781 576.121094 601.410156 C 587.828125 604.171875 599.722656 606 611.65625 607.480469 L 614.015625 607.78125 C 628.84375 609.542969 643.699219 610.136719 658.621094 610.085938 C 660.78125 610.078125 662.941406 610.082031 665.101562 610.089844 C 680.460938 610.136719 695.8125 609.527344 711.054688 607.519531 L 713.570312 607.199219 C 723.289062 605.917969 732.917969 604.117188 742.535156 602.238281 C 743.167969 602.117188 743.800781 601.996094 744.453125 601.871094 C 751.820312 600.4375 759.019531 598.589844 766.214844 596.480469 L 767.6875 596.054688 C 774.507812 594.085938 781.269531 591.941406 788.015625 589.71875 L 790.183594 589.015625 C 794.109375 587.707031 797.855469 586.226562 801.601562 584.46875 C 804.566406 583.121094 807.613281 581.996094 810.65625 580.839844 C 815.277344 579.0625 819.710938 577.191406 824.097656 574.902344 C 828.304688 572.789062 832.484375 571.046875 837.257812 571.320312 C 839.335938 571.644531 840.667969 572.207031 842.375 573.441406 C 843.511719 574.839844 844.304688 576.230469 844.9375 577.921875 C 845.1875 580.0625 845.128906 581.300781 844.296875 583.28125 L 843.65625 584.320312 L 842.375 584.320312 L 842.375 585.601562 C 840.902344 586.621094 839.394531 587.597656 837.855469 588.519531 L 836.445312 589.382812 C 835.476562 589.972656 834.511719 590.558594 833.539062 591.144531 C 832.273438 591.917969 831.019531 592.703125 829.769531 593.5 C 823.839844 597.234375 817.632812 600.078125 811.214844 602.867188 C 809.933594 603.429688 808.671875 604.019531 807.417969 604.628906 C 791.347656 612.441406 774.496094 617.746094 757.257812 622.238281 L 754.804688 622.878906 C 749.875 624.140625 744.941406 625.21875 739.945312 626.160156 C 738.109375 626.464844 738.109375 626.464844 736.777344 627.199219 C 735.8125 627.375 734.84375 627.523438 733.875 627.660156 L 732.144531 627.90625 L 728.519531 628.414062 L 726.792969 628.660156 L 725.203125 628.882812 L 723.976562 629.121094 L 723.335938 629.761719 C 721.617188 629.992188 719.90625 630.1875 718.179688 630.359375 L 716.589844 630.523438 C 714.90625 630.699219 713.222656 630.871094 711.535156 631.039062 C 710.421875 631.15625 709.308594 631.269531 708.191406 631.386719 C 703.835938 631.832031 699.476562 632.277344 695.113281 632.679688 C 692.753906 632.800781 692.753906 632.800781 691.335938 633.601562 C 686.578125 634.253906 681.773438 634.285156 676.980469 634.273438 C 676.398438 634.273438 675.820312 634.269531 675.222656 634.269531 C 668.734375 634.25 662.25 634.160156 655.761719 634.035156 C 654.40625 634.011719 653.050781 633.988281 651.699219 633.96875 C 644.265625 633.859375 636.964844 633.597656 629.59375 632.609375 C 626.824219 632.253906 624.082031 632.09375 621.296875 632 C 617.222656 631.816406 613.394531 631.332031 609.417969 630.398438 C 606.867188 629.984375 604.339844 629.714844 601.765625 629.515625 C 597.785156 629.160156 593.925781 628.417969 590.015625 627.601562 L 587.882812 627.164062 C 585.886719 626.753906 583.890625 626.335938 581.894531 625.921875 L 579.25 625.371094 C 577.140625 624.929688 575.039062 624.472656 572.9375 624 L 571.699219 623.722656 C 558.441406 620.738281 545.050781 617.246094 532.332031 612.433594 C 530.457031 611.753906 528.566406 611.175781 526.65625 610.601562 C 520.589844 608.761719 514.664062 606.597656 508.785156 604.230469 C 506.90625 603.476562 505.023438 602.726562 503.140625 601.984375 L 499.054688 600.359375 L 497.011719 599.550781 C 493.136719 598.007812 489.324219 596.386719 485.546875 594.628906 C 483.972656 593.917969 482.386719 593.289062 480.777344 592.679688 C 477.726562 591.492188 474.933594 589.964844 472.101562 588.332031 C 470.699219 587.605469 469.515625 587.175781 467.976562 586.878906 L 467.976562 585.601562 L 462.855469 584.320312 L 462.855469 583.039062 L 461.550781 582.863281 C 459.175781 582.28125 457.128906 581.238281 454.976562 580.121094 L 453.726562 579.480469 C 452.714844 578.964844 451.703125 578.441406 450.695312 577.921875 L 450.695312 576.640625 L 449.640625 576.355469 C 444.972656 574.96875 441.320312 572.695312 437.617188 569.558594 C 436.390625 568.039062 435.804688 567.03125 435.335938 565.121094 C 435.285156 562.113281 435.726562 559.851562 437.097656 557.160156 C 438.535156 555.519531 438.535156 555.519531 439.898438 554.601562 C 442.804688 554.03125 445.242188 554.195312 448.136719 554.878906 " fill-opacity="1" fill-rule="nonzero"/><path fill="#fd8400" d="M 199.195312 254.628906 L 201.460938 254.613281 L 203.890625 254.613281 L 206.425781 254.605469 C 208.199219 254.601562 209.972656 254.601562 211.742188 254.601562 C 213.539062 254.601562 215.339844 254.597656 217.136719 254.589844 C 245.757812 254.449219 245.757812 254.449219 257.015625 260.679688 C 261.996094 263.773438 265.09375 267.195312 268.128906 272.175781 C 270.886719 278.128906 270.769531 284.777344 270.214844 291.199219 C 269.117188 296.992188 266.890625 302.304688 263.152344 306.875 C 261.703125 308.515625 260.210938 310.101562 258.695312 311.679688 L 257.523438 312.976562 C 253.53125 317.238281 248.722656 320.480469 243.976562 323.839844 C 245.480469 329.324219 247.507812 334.589844 249.578125 339.878906 L 250.609375 342.535156 C 252.613281 347.675781 254.644531 352.796875 256.796875 357.875 C 258.390625 361.648438 259.019531 364.550781 258.695312 368.640625 C 257.539062 369.921875 256.695312 370.375 255.078125 370.914062 C 252.921875 371.324219 250.773438 371.316406 248.582031 371.332031 L 247.121094 371.339844 C 246.101562 371.347656 245.078125 371.351562 244.058594 371.355469 C 242.507812 371.359375 240.957031 371.378906 239.40625 371.398438 C 238.414062 371.402344 237.417969 371.40625 236.421875 371.410156 L 235.035156 371.433594 C 232.859375 371.425781 230.921875 371.136719 228.808594 370.625 C 226.640625 369.246094 226.121094 368.609375 224.964844 366.410156 C 223.414062 362.917969 222.234375 359.324219 221.128906 355.667969 L 220.507812 353.660156 C 219.855469 351.5625 219.214844 349.460938 218.574219 347.359375 L 217.265625 343.105469 C 216.648438 341.109375 216.035156 339.113281 215.421875 337.113281 C 214.523438 334.171875 213.609375 331.234375 212.617188 328.320312 L 206.214844 328.320312 L 205.984375 331.050781 C 205.605469 334.828125 204.910156 338.511719 204.160156 342.230469 L 203.742188 344.335938 C 203.449219 345.789062 203.15625 347.246094 202.863281 348.699219 C 202.417969 350.925781 201.972656 353.148438 201.53125 355.375 L 200.679688 359.632812 L 200.28125 361.644531 L 199.898438 363.519531 L 199.570312 365.164062 C 199.144531 366.84375 198.652344 368.355469 197.894531 369.921875 C 193.886719 371.875 189.351562 371.414062 184.988281 371.402344 C 183.542969 371.402344 182.097656 371.414062 180.652344 371.429688 C 179.71875 371.433594 178.789062 371.433594 177.859375 371.433594 L 175.324219 371.4375 C 172.578125 371.164062 170.890625 370.546875 168.457031 369.28125 C 167.28125 366.925781 167.691406 364.179688 167.816406 361.601562 C 168.0625 359.523438 168.4375 357.480469 168.84375 355.429688 L 169.175781 353.667969 C 169.539062 351.753906 169.910156 349.839844 170.28125 347.929688 L 171.0625 343.835938 C 171.890625 339.515625 172.730469 335.195312 173.578125 330.878906 L 173.992188 328.761719 C 175.902344 319.03125 177.835938 309.308594 179.792969 299.585938 C 180.367188 296.726562 180.941406 293.867188 181.511719 291.003906 C 182.070312 288.207031 182.628906 285.410156 183.191406 282.613281 L 183.980469 278.671875 C 184.765625 274.738281 185.558594 270.808594 186.375 266.878906 L 186.65625 265.519531 C 186.90625 264.34375 187.160156 263.167969 187.417969 261.992188 L 187.828125 260.101562 C 188.296875 258.558594 188.296875 258.558594 189.777344 256.480469 C 192.679688 254.589844 195.804688 254.640625 199.195312 254.628906 M 217.738281 277.121094 C 216.675781 280.085938 215.960938 283.0625 215.351562 286.144531 L 215.054688 287.617188 C 214.851562 288.636719 214.648438 289.660156 214.445312 290.679688 C 214.136719 292.242188 213.824219 293.800781 213.507812 295.359375 L 212.910156 298.34375 L 212.625 299.753906 C 212.210938 301.871094 211.976562 303.75 211.976562 305.921875 C 220.3125 306.355469 220.3125 306.355469 228.296875 304.289062 C 231.921875 302.1875 234.984375 299.640625 237.265625 296.09375 C 238.96875 292.425781 239.246094 288.769531 239.097656 284.753906 C 238.925781 282.753906 238.925781 282.753906 237.855469 280.558594 C 236.007812 278.757812 234.28125 277.792969 231.816406 277.121094 C 229.371094 276.898438 226.949219 276.9375 224.496094 277 L 222.523438 277.027344 C 220.925781 277.050781 219.332031 277.082031 217.738281 277.121094 " fill-opacity="1" fill-rule="nonzero"/><path fill="#00adc0" d="M 270.855469 56.960938 C 273.007812 57.484375 275.085938 58.15625 277.175781 58.878906 L 278.925781 59.476562 C 285.160156 61.65625 291.144531 64.339844 297.097656 67.199219 L 298.410156 67.832031 C 301.410156 69.285156 304.375 70.792969 307.335938 72.320312 L 308.953125 73.148438 C 310.75 74.066406 312.542969 74.992188 314.335938 75.921875 L 316.195312 76.882812 C 319.640625 78.679688 323.042969 80.554688 326.398438 82.507812 L 328.574219 83.765625 C 329.960938 84.574219 331.34375 85.390625 332.722656 86.21875 C 336.363281 88.375 336.363281 88.375 340.472656 88.996094 C 342.71875 88.261719 344.910156 87.5 347.097656 86.601562 L 348.371094 86.078125 C 350.917969 85.019531 353.441406 83.898438 355.9375 82.71875 C 371.015625 75.671875 386.945312 69.054688 402.976562 64.480469 L 404.257812 64.105469 C 407.289062 63.304688 410.457031 62.9375 413.578125 63.359375 L 414.855469 64.640625 C 415.136719 66.441406 415.136719 66.441406 414.855469 68.480469 C 413.824219 69.746094 412.894531 70.640625 411.65625 71.679688 L 410.523438 72.746094 C 407.140625 75.886719 403.515625 78.636719 399.816406 81.378906 C 396.492188 83.851562 393.199219 86.367188 389.9375 88.917969 C 385.632812 92.277344 381.308594 95.613281 376.96875 98.925781 C 373.796875 101.34375 370.636719 103.78125 367.496094 106.238281 C 368.335938 108.144531 369.160156 109.300781 370.78125 110.601562 L 372.011719 111.59375 L 373.335938 112.640625 L 374.707031 113.738281 C 379.101562 117.234375 383.570312 120.640625 388.105469 123.953125 C 388.882812 124.527344 389.652344 125.109375 390.414062 125.707031 L 391.554688 126.578125 L 392.546875 127.359375 C 394.257812 128.28125 395.636719 128.496094 397.578125 128.640625 C 399.238281 128.320312 400.882812 127.921875 402.507812 127.441406 L 403.914062 127.050781 C 405.390625 126.640625 406.863281 126.222656 408.335938 125.800781 C 420.414062 122.339844 420.414062 122.339844 425.097656 122.878906 L 426.375 124.160156 C 426.285156 126.558594 426.015625 128.191406 424.738281 130.238281 C 423.523438 131.480469 422.253906 132.667969 420.9375 133.800781 C 414.890625 139.042969 409.355469 143.875 406.386719 151.527344 C 404.953125 155.714844 403.949219 160.035156 402.925781 164.335938 C 402.238281 167.117188 401.46875 169.621094 400.136719 172.160156 C 398.257812 172.921875 398.257812 172.921875 396.296875 172.800781 C 394.972656 171.792969 394.972656 171.792969 393.738281 170.238281 C 393.015625 168.199219 393.015625 168.199219 392.457031 165.761719 L 392.140625 164.433594 C 391.535156 161.824219 391.023438 159.207031 390.558594 156.570312 L 390.242188 154.832031 C 390.042969 153.710938 389.851562 152.585938 389.675781 151.457031 C 389.414062 149.980469 389.125 148.613281 388.617188 147.199219 C 386.542969 144.984375 384.085938 143.910156 381.335938 142.679688 C 380.488281 142.296875 379.644531 141.910156 378.796875 141.523438 L 377.378906 140.878906 C 373.679688 139.175781 370.019531 137.390625 366.351562 135.621094 C 359.5 132.015625 359.5 132.015625 352.136719 129.921875 L 351.945312 131.945312 C 351.449219 135.90625 350.402344 139.738281 349.417969 143.601562 L 348.804688 146.027344 C 347.609375 150.742188 346.339844 155.4375 345 160.109375 C 343.589844 165.121094 342.46875 170.203125 341.347656 175.285156 C 340.460938 179.246094 339.402344 183.050781 338.054688 186.878906 L 337.515625 188.65625 L 337.097656 190.039062 L 336.675781 191.457031 L 336.136719 192.640625 L 334.214844 193.921875 C 331.976562 193.800781 331.976562 193.800781 329.738281 193.28125 C 328.71875 192.574219 328.71875 192.574219 327.816406 191.359375 C 327.300781 189.863281 326.859375 188.34375 326.496094 186.800781 L 325.875 184.355469 C 324.015625 175.484375 323.65625 166.347656 323.257812 157.320312 L 323.171875 155.542969 C 322.71875 145.652344 322.582031 135.777344 322.6875 125.875 C 322.691406 125.390625 322.695312 124.902344 322.699219 124.402344 C 322.714844 123.09375 322.730469 121.792969 322.75 120.488281 C 322.707031 118.777344 322.640625 117.433594 322.054688 115.839844 C 321.027344 114.898438 321.027344 114.898438 319.777344 114.160156 C 318.535156 113.375 318.535156 113.375 317.578125 112.640625 L 317.578125 111.359375 L 316.097656 110.800781 C 314.375 110.078125 314.375 110.078125 312.457031 108.800781 L 312.457031 107.519531 L 309.257812 106.238281 L 309.257812 104.960938 L 307.816406 104.441406 C 306.125 103.710938 304.867188 102.980469 303.496094 101.761719 L 303.496094 100.480469 L 302.089844 99.980469 C 300.21875 99.167969 298.820312 98.214844 297.214844 96.960938 L 295.683594 95.78125 L 294.535156 94.71875 L 294.535156 93.441406 L 293.214844 93.039062 C 291.070312 92.035156 289.59375 90.757812 287.847656 89.175781 C 286.871094 88.261719 286.871094 88.261719 285.578125 87.679688 L 285.578125 86.398438 L 284.136719 85.921875 C 282.238281 85.058594 281.226562 84.070312 279.816406 82.558594 L 278.535156 81.921875 L 278.535156 80.640625 L 277.46875 80.191406 C 275.570312 79.132812 274.164062 77.800781 272.578125 76.320312 C 270.597656 74.476562 268.613281 72.679688 266.496094 71 C 263.980469 68.855469 262.109375 66.304688 260.617188 63.359375 C 260.257812 61.242188 260.257812 61.242188 260.617188 59.519531 C 261.457031 58.039062 261.457031 58.039062 262.535156 56.960938 C 265.386719 56.011719 267.921875 56.488281 270.855469 56.960938 M 421.257812 426.238281 C 423.367188 427.234375 424.792969 428.433594 426.296875 430.238281 L 427.015625 431.359375 C 429.820312 430.972656 431.867188 429.914062 434.335938 428.558594 C 440.523438 425.335938 446.945312 423.957031 453.9375 424.179688 C 459.761719 424.613281 464.964844 425.484375 469.894531 428.800781 C 471.847656 430.460938 473.265625 432.144531 474.25 434.523438 C 475.503906 438.902344 475.1875 443.304688 474.296875 447.71875 L 473.765625 450.402344 L 473.453125 451.964844 C 473.035156 454.074219 472.628906 456.1875 472.226562 458.296875 C 470.589844 466.84375 468.921875 475.378906 467.113281 483.886719 C 466.160156 488.382812 465.320312 492.894531 464.527344 497.421875 C 464.308594 498.65625 464.082031 499.890625 463.855469 501.121094 L 463.417969 503.558594 C 462.855469 505.601562 462.855469 505.601562 461.914062 506.800781 C 460.9375 507.519531 460.9375 507.519531 459.65625 508.160156 C 456.835938 508.296875 454.011719 508.277344 451.1875 508.277344 C 449.785156 508.28125 448.378906 508.292969 446.976562 508.304688 C 446.082031 508.304688 445.191406 508.308594 444.300781 508.308594 L 441.835938 508.316406 C 439.816406 508.160156 439.816406 508.160156 437.894531 506.878906 C 437.285156 505.382812 437.25 504.394531 437.425781 502.785156 L 437.78125 501.050781 L 438.175781 499.074219 L 438.621094 496.933594 L 439.074219 494.691406 C 439.554688 492.3125 440.046875 489.9375 440.535156 487.558594 L 441.480469 482.914062 C 443.96875 470.675781 443.96875 470.675781 445.246094 464.578125 L 446.132812 460.289062 L 446.550781 458.320312 C 447.269531 454.808594 447.71875 451.589844 447.496094 448 C 446.757812 446.425781 446.757812 446.425781 445.578125 445.441406 C 443.261719 444.667969 441.613281 444.640625 439.175781 444.800781 C 436.460938 445.464844 434.3125 446.550781 431.976562 448.078125 C 429.175781 451.007812 428.046875 454.113281 427.070312 458.027344 C 426.445312 460.886719 425.898438 463.757812 425.351562 466.628906 C 425.144531 467.691406 424.933594 468.75 424.726562 469.8125 C 424.179688 472.585938 423.640625 475.363281 423.105469 478.140625 C 422.242188 482.59375 421.375 487.046875 420.5 491.496094 C 420.195312 493.046875 419.898438 494.597656 419.597656 496.148438 L 419.042969 499 L 418.558594 501.511719 C 418.113281 503.429688 417.640625 505.113281 416.777344 506.878906 C 414.792969 507.871094 412.691406 507.625 410.515625 507.628906 L 409.023438 507.632812 C 407.984375 507.636719 406.941406 507.636719 405.898438 507.636719 C 404.304688 507.640625 402.707031 507.652344 401.109375 507.664062 C 400.097656 507.667969 399.085938 507.667969 398.078125 507.667969 L 396.625 507.679688 C 395.445312 507.675781 394.269531 507.605469 393.097656 507.519531 L 391.816406 506.238281 C 391.605469 502.726562 391.996094 499.695312 392.777344 496.25 L 393.085938 494.867188 C 393.304688 493.886719 393.527344 492.90625 393.75 491.929688 C 394.347656 489.300781 394.921875 486.667969 395.5 484.035156 L 395.859375 482.394531 C 397.027344 477.0625 398.140625 471.722656 399.199219 466.371094 C 399.394531 465.386719 399.59375 464.40625 399.792969 463.425781 C 401.625 455.441406 401.625 455.441406 401.417969 447.359375 C 400.640625 446.203125 400.640625 446.203125 399.496094 445.441406 C 396.355469 444.75 393.648438 444.574219 390.546875 445.496094 C 387.964844 446.664062 385.890625 448.351562 384.136719 450.558594 C 381.289062 455.246094 380.515625 460.734375 379.488281 466.035156 C 379.171875 467.667969 378.847656 469.296875 378.519531 470.929688 C 378.0625 473.210938 377.605469 475.496094 377.15625 477.78125 C 376.125 482.945312 375.070312 488.109375 373.992188 493.265625 C 373.660156 494.859375 373.335938 496.453125 373.007812 498.050781 L 372.402344 500.96875 L 372.132812 502.3125 C 371.6875 504.40625 371.261719 505.710938 370.054688 507.519531 C 368.824219 507.84375 368.824219 507.84375 367.292969 507.949219 L 365.554688 508.074219 C 362.160156 508.226562 358.773438 508.304688 355.375 508.320312 C 354.300781 508.339844 354.300781 508.339844 353.199219 508.359375 L 351.117188 508.371094 L 349.242188 508.386719 C 347.65625 508.160156 347.65625 508.160156 346.519531 507.386719 C 345.507812 505.902344 345.320312 504.828125 345.097656 503.039062 C 345.351562 501.046875 345.351562 501.046875 345.828125 498.769531 L 346.089844 497.5 C 346.277344 496.585938 346.46875 495.671875 346.664062 494.757812 C 347.085938 492.769531 347.492188 490.773438 347.902344 488.777344 L 348.5625 485.585938 C 349.699219 480.082031 350.769531 474.5625 351.839844 469.042969 C 352.492188 465.675781 353.15625 462.308594 353.816406 458.941406 C 354.382812 456.070312 354.941406 453.199219 355.496094 450.324219 C 356.042969 447.476562 356.601562 444.628906 357.164062 441.78125 C 357.375 440.714844 357.582031 439.644531 357.785156 438.574219 C 358.066406 437.097656 358.359375 435.625 358.65625 434.148438 L 358.898438 432.839844 C 359.324219 430.773438 359.878906 429.347656 361.046875 427.585938 C 362.375 426.238281 362.375 426.238281 364.296875 425.601562 C 367.28125 425.433594 370.269531 425.453125 373.257812 425.441406 L 375.773438 425.398438 L 378.175781 425.390625 L 380.382812 425.371094 C 382.214844 425.601562 382.214844 425.601562 383.421875 426.425781 L 384.136719 427.519531 C 384.257812 429.878906 384.257812 429.878906 384.136719 432 L 385.664062 430.96875 C 396.523438 423.925781 408.789062 421.859375 421.257812 426.238281 M 294.726562 395.273438 L 296.550781 395.261719 C 298.539062 395.253906 300.527344 395.257812 302.515625 395.265625 C 303.898438 395.265625 305.28125 395.261719 306.664062 395.257812 C 309.558594 395.257812 312.457031 395.261719 315.351562 395.269531 C 319.066406 395.28125 322.78125 395.273438 326.496094 395.261719 C 329.351562 395.253906 332.203125 395.257812 335.058594 395.261719 C 336.425781 395.265625 337.796875 395.261719 339.167969 395.257812 C 341.082031 395.253906 342.992188 395.261719 344.90625 395.269531 L 346.625 395.257812 C 350.449219 395.300781 350.449219 395.300781 352.488281 396.402344 C 353.417969 397.441406 353.417969 397.441406 353.753906 398.945312 C 353.691406 404.648438 352.574219 409.945312 350.855469 415.359375 L 349.574219 417.28125 C 347.761719 417.886719 346.585938 418.011719 344.699219 418.042969 L 342.886719 418.074219 L 340.929688 418.101562 L 338.90625 418.136719 C 336.769531 418.171875 334.632812 418.207031 332.496094 418.238281 C 329.691406 418.285156 326.890625 418.332031 324.089844 418.378906 L 322.152344 418.40625 C 318.664062 418.46875 315.242188 418.53125 311.816406 419.199219 C 310.757812 420.863281 310.347656 421.824219 309.894531 423.679688 L 309.519531 425.195312 C 309.140625 426.84375 308.8125 428.496094 308.496094 430.160156 L 308.152344 431.867188 C 307.632812 434.523438 307.277344 436.964844 307.335938 439.679688 C 309.105469 440.269531 310.183594 440.40625 312.007812 440.421875 L 313.683594 440.441406 L 315.492188 440.457031 L 319.277344 440.511719 C 321.269531 440.535156 323.257812 440.558594 325.25 440.578125 C 327.167969 440.59375 329.089844 440.625 331.011719 440.65625 L 332.808594 440.660156 C 335.316406 440.710938 337.078125 440.808594 339.390625 441.839844 L 340.617188 442.878906 C 341.660156 447.261719 340.523438 452.289062 339.3125 456.550781 C 338.765625 458.046875 338.246094 459.261719 337.335938 460.558594 C 335.242188 462.289062 333.898438 462.597656 331.300781 463.121094 C 328.898438 463.488281 326.554688 463.492188 324.128906 463.441406 L 322.589844 463.425781 C 320.984375 463.410156 319.378906 463.386719 317.777344 463.359375 C 315.652344 463.328125 313.53125 463.300781 311.410156 463.28125 L 309.953125 463.246094 C 307.128906 463.222656 304.804688 463.46875 302.214844 464.640625 C 301.375 466.335938 301.375 466.335938 301.097656 468.398438 L 300.675781 470.664062 L 300.296875 472.960938 L 299.898438 475.015625 C 299.179688 478.867188 298.886719 482.484375 299.015625 486.398438 C 304.792969 486.796875 310.558594 487.085938 316.351562 487.175781 L 317.988281 487.203125 C 320.207031 487.238281 322.425781 487.273438 324.644531 487.296875 C 326.292969 487.316406 327.941406 487.34375 329.589844 487.375 L 331.113281 487.382812 C 332.519531 487.414062 332.519531 487.414062 334.855469 487.679688 C 336.128906 488.570312 336.128906 488.570312 336.777344 489.601562 C 337.695312 494.695312 336.554688 500.785156 334.855469 505.601562 C 333.902344 506.660156 333.902344 506.660156 332.296875 507.519531 C 330.328125 507.816406 328.375 507.808594 326.386719 507.808594 L 324.578125 507.828125 C 322.601562 507.851562 320.625 507.863281 318.648438 507.871094 L 314.519531 507.910156 C 311.632812 507.9375 308.746094 507.957031 305.859375 507.972656 C 302.167969 507.996094 298.476562 508.027344 294.785156 508.0625 C 291.945312 508.089844 289.101562 508.113281 286.257812 508.132812 C 284.898438 508.144531 283.535156 508.15625 282.175781 508.167969 C 280.269531 508.183594 278.363281 508.195312 276.457031 508.203125 L 274.765625 508.21875 C 271.484375 508.230469 268.332031 508.101562 265.097656 507.519531 C 263.996094 505.316406 264.3125 502.886719 264.457031 500.480469 C 264.773438 498.175781 265.234375 495.910156 265.710938 493.632812 L 266.125 491.566406 C 266.589844 489.269531 267.0625 486.976562 267.535156 484.679688 L 268.539062 479.753906 C 269.09375 477.023438 269.648438 474.296875 270.207031 471.566406 C 271.78125 463.839844 273.335938 456.109375 274.875 448.375 C 275.695312 444.261719 276.519531 440.148438 277.34375 436.035156 C 278.027344 432.617188 278.710938 429.199219 279.390625 425.78125 C 280.039062 422.523438 280.691406 419.261719 281.351562 416.003906 C 281.59375 414.792969 281.835938 413.578125 282.074219 412.367188 C 282.40625 410.691406 282.746094 409.015625 283.085938 407.339844 L 283.371094 405.867188 C 284.089844 402.371094 284.898438 399.007812 287.246094 396.214844 C 289.6875 395.105469 292.074219 395.253906 294.726562 395.273438 M 770.375 426.703125 C 772.601562 426.949219 774.3125 426.234375 776.457031 425.601562 C 778.347656 425.347656 780.234375 425.246094 782.136719 425.160156 L 783.675781 425.085938 C 787.105469 424.945312 790.359375 424.890625 793.738281 425.601562 C 794.824219 426.460938 794.824219 426.460938 795.65625 427.519531 C 796.183594 432.101562 794.960938 436.535156 794.003906 441 C 793.609375 442.863281 793.226562 444.730469 792.855469 446.601562 L 792.375 449.003906 C 790.777344 457.0625 789.230469 465.132812 787.742188 473.214844 L 787.3125 475.558594 C 787.042969 477.042969 786.773438 478.527344 786.503906 480.011719 C 785.476562 485.636719 785.476562 485.636719 784.777344 488.3125 C 783.863281 491.808594 783.292969 495.367188 782.65625 498.917969 C 781.5 505.292969 780.214844 511.640625 778.804688 517.960938 C 778.117188 521.058594 777.496094 524.140625 777.015625 527.28125 C 776.53125 530.355469 776.007812 533.546875 774.535156 536.320312 C 773.460938 537.332031 773.460938 537.332031 771.976562 538.238281 C 770.160156 538.535156 770.160156 538.535156 768.082031 538.613281 L 765.796875 538.699219 L 763.417969 538.761719 L 761.050781 538.859375 C 757.328125 538.976562 754.355469 539.035156 750.855469 537.601562 L 749.578125 536.320312 C 748.671875 530.445312 750.421875 524.425781 751.695312 518.71875 L 752.296875 515.941406 C 753.375 510.960938 754.5625 506.019531 755.976562 501.121094 L 754.683594 501.988281 C 749.210938 505.578125 743.605469 509.140625 736.929688 509.546875 C 730.671875 509.589844 725.285156 508.929688 719.703125 505.949219 C 716.300781 503.683594 713.59375 500.261719 711.714844 496.640625 C 708.695312 489.476562 708.570312 481.671875 709.421875 474.035156 C 709.863281 470.871094 710.496094 467.761719 711.175781 464.640625 L 711.574219 462.613281 C 713.691406 452.859375 718.363281 444.136719 724.878906 436.621094 C 729.230469 432.039062 734.410156 427.957031 740.488281 425.957031 C 750.589844 423.410156 760.425781 423.820312 770.375 426.703125 M 750.296875 443.878906 L 748.296875 445.441406 L 747.214844 446.246094 C 743.03125 449.8125 740.667969 455.132812 738.695312 460.160156 C 736.363281 467.1875 735.058594 474.507812 735.496094 481.921875 C 736.011719 484.277344 736.484375 485.421875 738.054688 487.242188 C 739.269531 488.347656 739.269531 488.347656 740.617188 488.960938 C 743.636719 489.328125 746.492188 489.328125 749.410156 488.402344 C 752.375 487.03125 755.070312 485.421875 757.039062 482.773438 C 760.296875 477.097656 761.191406 469.34375 762.496094 463 L 763 460.652344 C 764.644531 453.109375 764.644531 453.109375 764.9375 445.441406 C 764.164062 444.246094 764.164062 444.246094 763.015625 443.519531 C 759.203125 442.25 753.933594 441.9375 750.296875 443.878906 " fill-opacity="1" fill-rule="nonzero"/><path fill="#fd8400" d="M 595.71875 259.664062 C 596.671875 259.652344 597.625 259.644531 598.578125 259.648438 L 600.105469 259.640625 C 601.167969 259.636719 602.234375 259.636719 603.300781 259.636719 C 604.929688 259.640625 606.5625 259.625 608.191406 259.609375 C 609.226562 259.605469 610.261719 259.605469 611.296875 259.609375 L 612.773438 259.589844 C 614.664062 259.605469 616.109375 259.636719 617.761719 260.605469 C 618.375 261.761719 618.375 261.761719 618.359375 263.269531 L 617.992188 265.085938 L 617.582031 267.164062 L 617.097656 269.441406 L 616.605469 271.820312 C 615.96875 274.847656 615.3125 277.871094 614.652344 280.894531 C 613.496094 286.207031 612.425781 291.523438 611.46875 296.875 C 610.367188 303.054688 609.175781 309.210938 607.960938 315.371094 L 607.671875 316.816406 C 607.089844 319.777344 606.5 322.738281 605.914062 325.699219 C 605.226562 329.167969 604.539062 332.632812 603.855469 336.097656 C 603.472656 338.023438 603.09375 339.953125 602.710938 341.878906 C 601.832031 346.273438 600.984375 350.675781 600.167969 355.082031 L 599.738281 357.402344 C 599.476562 358.8125 599.222656 360.21875 598.972656 361.628906 C 597.824219 367.847656 597.824219 367.847656 595.976562 370.558594 C 592.886719 372.027344 588.488281 371.34375 585.136719 371.359375 L 582.847656 371.398438 L 580.640625 371.410156 L 578.625 371.429688 C 576.777344 371.199219 576.777344 371.199219 574.96875 370.375 L 573.578125 369.28125 C 573.058594 366.917969 573.058594 366.917969 572.9375 364.800781 L 571.503906 365.691406 C 564.796875 369.746094 558.617188 372.398438 550.734375 372.640625 C 545.476562 372.589844 540.359375 371.335938 535.714844 368.816406 C 532.859375 366.835938 530.789062 364.335938 529.230469 361.238281 C 525.957031 353.335938 526.152344 344.523438 527.050781 336.113281 C 528.660156 324.984375 532.316406 314.96875 539.015625 305.921875 C 540.84375 303.6875 542.769531 301.589844 544.777344 299.519531 L 545.863281 298.289062 C 549.535156 294.273438 554.109375 291.59375 559.199219 289.734375 C 563.539062 288.425781 567.765625 287.53125 572.296875 287.359375 L 573.863281 287.28125 C 577.941406 287.171875 581.757812 287.792969 585.738281 288.640625 L 585.9375 286.710938 C 586.441406 282.707031 587.230469 278.753906 587.996094 274.796875 C 588.257812 273.433594 588.511719 272.070312 588.769531 270.707031 L 589.273438 268.089844 L 589.730469 265.710938 C 590.152344 263.953125 590.519531 262.628906 591.496094 261.121094 C 593.417969 259.839844 593.417969 259.839844 595.71875 259.664062 M 568.457031 309.121094 C 563.777344 312.480469 559.988281 317.011719 557.539062 322.234375 C 554.601562 330.054688 552.964844 338.683594 554.175781 347 C 554.402344 348.652344 554.402344 348.652344 555.015625 350.078125 C 556.507812 351.445312 557.5625 351.996094 559.496094 352.640625 C 562.605469 352.882812 565.023438 352.527344 567.867188 351.339844 C 570.265625 350.128906 572.125 348.679688 573.671875 346.46875 C 577.398438 339.789062 578.085938 330.957031 579.511719 323.511719 C 579.714844 322.441406 579.925781 321.371094 580.136719 320.300781 C 580.445312 318.734375 580.746094 317.167969 581.046875 315.601562 L 581.335938 314.160156 C 581.804688 311.65625 581.976562 309.660156 581.257812 307.199219 C 574.59375 306.871094 574.59375 306.871094 568.457031 309.121094 " fill-opacity="1" fill-rule="nonzero"/><path fill="#00adc0" d="M 511.433594 392.117188 C 512.773438 392.121094 514.113281 392.105469 515.453125 392.089844 C 516.308594 392.085938 517.160156 392.085938 518.015625 392.085938 L 520.363281 392.082031 C 522.375 392.320312 522.375 392.320312 523.914062 393.164062 L 524.9375 394.238281 C 525.257812 397.390625 524.738281 400.308594 524.136719 403.398438 L 523.878906 404.726562 C 523.121094 408.566406 522.273438 412.386719 521.410156 416.203125 C 520.371094 420.8125 519.441406 425.441406 518.535156 430.078125 C 520.984375 429.316406 523.171875 428.433594 525.417969 427.199219 C 530.261719 424.746094 535.03125 424.066406 540.429688 424.203125 C 545.660156 424.542969 549.804688 425.449219 554.234375 428.355469 C 557.742188 431.03125 559.765625 434.054688 561.507812 438.078125 C 562.957031 442.300781 563.550781 446.042969 563.496094 450.480469 L 563.480469 452.027344 C 563.414062 455.746094 563.023438 459.125 562.054688 462.71875 C 561.84375 463.628906 561.628906 464.539062 561.417969 465.449219 C 558.714844 476.695312 554.496094 487.6875 546.816406 496.519531 C 541.078125 502.523438 534.445312 506.25 526.488281 508.660156 C 525.117188 508.984375 523.769531 509.238281 522.375 509.441406 L 521.082031 509.652344 C 511.484375 510.988281 499.710938 510.679688 490.445312 507.503906 C 487.179688 505.996094 484.734375 503.960938 482.457031 501.199219 C 480.644531 497.71875 480.007812 494.535156 480.027344 490.601562 C 480.265625 487.007812 481.089844 483.480469 481.808594 479.957031 L 482.332031 477.308594 C 482.785156 475.023438 483.242188 472.742188 483.707031 470.457031 C 483.964844 469.175781 484.222656 467.890625 484.480469 466.605469 C 485.636719 460.855469 486.800781 455.105469 487.976562 449.359375 L 488.515625 446.722656 L 488.789062 445.382812 L 490.433594 437.3125 C 491.550781 431.855469 492.652344 426.394531 493.738281 420.933594 C 494.320312 418.011719 494.902344 415.089844 495.488281 412.164062 C 495.757812 410.8125 496.027344 409.457031 496.292969 408.101562 C 496.65625 406.246094 497.027344 404.386719 497.402344 402.53125 L 497.714844 400.898438 C 498.277344 398.144531 498.84375 395.859375 500.617188 393.601562 C 503.628906 391.386719 507.851562 392.105469 511.433594 392.117188 M 519.175781 446.71875 C 516.242188 449.308594 514.550781 451.804688 513.234375 455.515625 C 512.414062 458.101562 511.785156 460.71875 511.175781 463.359375 L 510.761719 465.136719 C 510.363281 466.890625 509.964844 468.644531 509.578125 470.398438 L 509.234375 471.917969 C 507.695312 478.78125 507.695312 478.78125 507.882812 485.765625 C 508.289062 487.257812 508.289062 487.257812 509.816406 489 C 511.449219 490.203125 512.636719 490.769531 514.640625 491.054688 C 517.539062 491.191406 519.792969 490.824219 522.457031 489.640625 C 525.269531 488.066406 527.199219 486.316406 529.042969 483.675781 C 534.15625 474.828125 537.164062 463.71875 537.457031 453.519531 C 537.359375 450.941406 537.164062 448.832031 535.976562 446.519531 C 534.578125 444.847656 533.933594 444.304688 531.976562 443.519531 C 527.113281 442.710938 523.179688 443.945312 519.175781 446.71875 " fill-opacity="1" fill-rule="nonzero"/><path fill="#fd8400" d="M 471.859375 287.398438 C 473.179688 287.519531 474.5 287.625 475.820312 287.734375 C 480.988281 288.183594 486.371094 288.726562 491.015625 291.199219 C 491.867188 292.3125 491.867188 292.3125 492.296875 293.761719 C 492.671875 301.875 490.460938 310.078125 488.816406 317.960938 L 487.960938 322.140625 C 487.515625 324.3125 487.070312 326.484375 486.625 328.65625 C 485.546875 333.917969 484.496094 339.1875 483.476562 344.460938 L 482.191406 351.035156 C 481.914062 352.445312 481.640625 353.859375 481.371094 355.269531 C 480.992188 357.238281 480.605469 359.207031 480.21875 361.171875 L 479.886719 362.9375 C 478.816406 368.28125 478.816406 368.28125 476.9375 370.558594 C 473.671875 372.011719 469.234375 371.320312 465.738281 371.320312 L 463.339844 371.34375 L 461.035156 371.347656 L 458.933594 371.355469 C 457.109375 371.203125 456.046875 370.933594 454.535156 369.921875 C 454 368.207031 454.011719 366.609375 453.894531 364.800781 L 452.617188 364.800781 L 452.617188 366.078125 C 448.039062 369.511719 442.867188 371.546875 437.257812 372.480469 C 431.007812 372.828125 425.625 372.398438 419.894531 369.839844 C 416.613281 368.097656 414.371094 365.957031 412.296875 362.878906 C 408.894531 356.78125 408.222656 350.835938 408.257812 343.960938 L 408.265625 341.714844 C 408.34375 336.160156 408.835938 331.121094 410.375 325.761719 L 411.035156 323.363281 C 413.515625 315.171875 417.546875 307.914062 423.175781 301.441406 L 424.160156 300.273438 C 427.5 296.613281 431.6875 294.242188 435.976562 291.839844 L 437.695312 290.871094 C 441.140625 289.125 444.566406 288.183594 448.335938 287.480469 L 449.597656 287.238281 C 456.945312 286.035156 464.492188 286.714844 471.859375 287.398438 M 446.847656 310.550781 C 443.015625 313.84375 440.726562 318.902344 438.945312 323.558594 C 437.179688 329.109375 436.492188 334.398438 436.457031 340.199219 L 436.417969 341.800781 C 436.398438 344.332031 436.550781 346.066406 437.484375 348.460938 C 438.464844 350.171875 438.464844 350.171875 440.175781 351.320312 C 442.722656 352.105469 444.582031 352.136719 447.203125 351.761719 C 449.246094 351.238281 450.664062 350.5 452.28125 349.152344 C 455.179688 346.203125 456.5625 343.082031 457.695312 339.121094 C 458.855469 334.402344 459.851562 329.648438 460.832031 324.894531 C 461.007812 324.039062 461.183594 323.1875 461.363281 322.332031 C 462.332031 317.667969 463.191406 313.253906 462.855469 308.480469 L 461.9375 307.160156 C 456.363281 305.121094 451.386719 307.179688 446.847656 310.550781 M 335.65625 290 C 340.726562 292.804688 344.621094 296.511719 347.65625 301.441406 C 349.371094 304.632812 350.433594 307.449219 350.855469 311.039062 L 351.132812 312.773438 C 352.488281 323.632812 349.699219 335.144531 345.496094 345.128906 C 342.050781 352.429688 337.230469 359.195312 330.722656 364.054688 C 322.769531 369.386719 314.210938 372.421875 304.707031 373.234375 C 296.261719 373.777344 288.492188 372.34375 280.777344 368.800781 C 276.730469 366.605469 273.683594 363.996094 271.179688 360.121094 C 267.300781 352.953125 266.578125 345.628906 266.792969 337.613281 C 267.3125 327.019531 270.121094 316.613281 275.855469 307.640625 C 281.246094 300.019531 287.277344 294.144531 295.738281 290.101562 C 307.644531 285.199219 323.820312 284.703125 335.65625 290 M 307.335938 307.839844 C 303.664062 311.058594 301.441406 314.605469 299.714844 319.148438 C 298.449219 323.011719 297.398438 326.921875 296.457031 330.878906 L 296.078125 332.410156 C 295.695312 334.847656 295.671875 337.257812 295.65625 339.71875 L 295.617188 341.210938 C 295.59375 344.804688 296.242188 347.441406 297.738281 350.71875 C 299.039062 352.121094 299.039062 352.121094 300.9375 352.640625 C 303.707031 353 306.035156 352.851562 308.695312 352 C 311.933594 349.75 314.476562 346.816406 316.375 343.359375 C 320.300781 334.765625 322.113281 325.632812 322.296875 316.238281 L 322.347656 314.671875 C 322.355469 311.972656 322.164062 310.597656 320.835938 308.171875 C 319.621094 306.585938 319.621094 306.585938 318.335938 305.679688 C 314.128906 304.476562 310.804688 305.398438 307.335938 307.839844 " fill-opacity="1" fill-rule="nonzero"/><path fill="#00adc0" d="M 633.375 425.160156 L 635.464844 425.386719 C 646.441406 426.710938 646.441406 426.710938 649.597656 428.984375 C 650.375 430.078125 650.375 430.078125 650.613281 431.570312 C 650.539062 435.839844 649.980469 439.738281 648.976562 443.878906 C 648.679688 445.171875 648.386719 446.464844 648.089844 447.757812 L 647.632812 449.78125 C 646.863281 453.253906 646.199219 456.746094 645.535156 460.238281 L 645.132812 462.355469 C 644.746094 464.398438 644.359375 466.4375 643.976562 468.480469 C 642.320312 477.238281 640.65625 485.992188 638.855469 494.71875 L 638.515625 496.378906 C 638.179688 497.984375 637.839844 499.59375 637.496094 501.199219 L 637.1875 502.683594 C 636.929688 503.878906 636.617188 505.058594 636.296875 506.238281 L 635.015625 507.519531 C 633.070312 507.675781 633.070312 507.675781 630.597656 507.667969 L 629.277344 507.667969 C 628.355469 507.664062 627.433594 507.660156 626.511719 507.652344 C 625.101562 507.640625 623.691406 507.640625 622.277344 507.640625 C 615.367188 507.613281 615.367188 507.613281 613.894531 506.878906 C 613.457031 505.800781 613.457031 505.800781 613.257812 504.320312 C 613.453125 503.035156 613.664062 501.757812 613.894531 500.480469 L 612.25 501.628906 C 606.253906 505.707031 600.078125 509.011719 592.777344 510.078125 C 587.3125 510.117188 582.339844 509.28125 577.417969 506.878906 C 573.894531 504.875 571.5625 502.371094 569.304688 499.03125 C 566.917969 494.105469 566.195312 489.351562 566.257812 483.921875 L 566.269531 481.988281 C 566.53125 470.074219 569.59375 458.445312 575.65625 448.160156 C 580.546875 440.242188 586.34375 433.726562 594.535156 429.082031 C 606.632812 423.15625 620.351562 423.703125 633.375 425.160156 M 606.335938 446.175781 C 602.246094 449.332031 599.679688 453.738281 597.613281 458.40625 C 594.5625 466.417969 592.546875 475.234375 593.417969 483.839844 C 593.8125 485.746094 594.238281 486.636719 595.335938 488.320312 C 597.019531 489.667969 597.019531 489.667969 599.175781 490.238281 C 602.488281 490.558594 605.101562 490.289062 608.167969 488.972656 C 610.472656 487.765625 612.226562 486.484375 613.894531 484.480469 C 616.375 479.433594 617.375 473.777344 618.492188 468.304688 C 618.773438 466.921875 619.066406 465.539062 619.355469 464.15625 C 621.648438 455.285156 621.648438 455.285156 621.855469 446.320312 C 621.046875 444.730469 621.046875 444.730469 619.578125 443.917969 C 614.652344 442.847656 610.578125 443.484375 606.335938 446.175781 " fill-opacity="1" fill-rule="nonzero"/><path fill="#00aec1" d="M 816.296875 425.34375 L 817.644531 425.339844 C 818.582031 425.339844 819.519531 425.339844 820.457031 425.351562 C 821.890625 425.359375 823.324219 425.351562 824.757812 425.335938 C 825.667969 425.339844 826.582031 425.339844 827.496094 425.34375 L 830.007812 425.351562 C 832.136719 425.601562 832.136719 425.601562 833.707031 426.371094 L 834.695312 427.519531 C 835.417969 433.425781 833.1875 440.214844 832.015625 446.039062 C 831.816406 447.054688 831.617188 448.070312 831.417969 449.082031 C 830.457031 453.945312 829.464844 458.796875 828.449219 463.648438 L 828.183594 464.921875 C 827.769531 466.886719 827.355469 468.847656 826.929688 470.808594 C 825.207031 478.09375 825.207031 478.09375 825.617188 485.441406 C 826.296875 487.105469 826.296875 487.105469 827.65625 488.320312 C 830.742188 488.726562 833.886719 488.730469 836.890625 487.878906 C 839.125 486.867188 840.238281 486.054688 841.730469 484.046875 C 843.050781 481.867188 843.652344 480.144531 844.234375 477.667969 C 844.335938 477.238281 844.4375 476.808594 844.542969 476.367188 C 846.261719 468.925781 847.667969 461.410156 849.136719 453.921875 C 849.601562 451.554688 850.066406 449.195312 850.53125 446.832031 C 850.820312 445.371094 851.105469 443.914062 851.390625 442.453125 C 851.785156 440.460938 852.195312 438.46875 852.617188 436.480469 L 853.054688 434.359375 L 853.519531 432.292969 L 853.925781 430.445312 C 854.644531 428.511719 855.535156 427.566406 857.097656 426.238281 C 858.996094 425.289062 860.945312 425.484375 863.03125 425.46875 L 864.429688 425.460938 C 865.40625 425.453125 866.378906 425.449219 867.355469 425.445312 C 868.847656 425.441406 870.335938 425.421875 871.828125 425.398438 C 872.773438 425.394531 873.722656 425.394531 874.671875 425.390625 L 876.019531 425.367188 C 878 425.375 879.324219 425.503906 881.0625 426.480469 L 882.054688 427.519531 C 882.988281 433.664062 880.402344 441.042969 879.109375 447.019531 C 878.203125 451.214844 877.378906 455.425781 876.578125 459.640625 L 876.175781 461.738281 C 875.546875 465.027344 874.925781 468.316406 874.3125 471.609375 C 873.359375 476.707031 872.382812 481.746094 871.035156 486.761719 C 870.597656 488.691406 870.253906 490.605469 869.9375 492.558594 L 869.617188 494.546875 C 869.40625 495.863281 869.207031 497.179688 869.015625 498.5 C 868.191406 503.675781 868.191406 503.675781 866.695312 506.003906 C 865.417969 507.519531 865.417969 507.519531 864.136719 508.160156 C 861.40625 508.308594 858.675781 508.304688 855.941406 508.3125 C 854.582031 508.320312 853.226562 508.339844 851.867188 508.359375 C 851.003906 508.363281 850.140625 508.367188 849.277344 508.371094 L 846.898438 508.386719 C 844.9375 508.160156 844.9375 508.160156 843.734375 507.328125 C 842.578125 505.574219 842.527344 503.820312 842.375 501.761719 L 843.015625 500.480469 L 841.304688 501.648438 C 835.0625 505.84375 829.597656 508.796875 821.9375 509.359375 C 816.382812 509.632812 811.078125 509.304688 806.015625 506.839844 C 802.875 504.882812 800.691406 502.402344 798.855469 499.199219 C 796.746094 494.121094 796.519531 488.925781 797.113281 483.492188 C 797.371094 481.847656 797.664062 480.21875 797.972656 478.582031 L 798.316406 476.699219 C 798.703125 474.597656 799.097656 472.5 799.496094 470.398438 L 799.9375 468.054688 C 800.894531 462.972656 801.871094 457.894531 802.867188 452.820312 C 803.296875 450.609375 803.722656 448.394531 804.148438 446.183594 C 804.558594 444.039062 804.980469 441.898438 805.398438 439.757812 L 805.855469 437.371094 C 807.257812 430.28125 807.257812 430.28125 809.097656 427.519531 C 811.242188 425.234375 813.257812 425.351562 816.296875 425.34375 " fill-opacity="1" fill-rule="nonzero"/><path fill="#fd8400" d="M 674.597656 289.320312 C 678.757812 291.484375 681.800781 294.613281 684.496094 298.398438 C 686.40625 302.046875 686.882812 306.367188 687.015625 310.441406 C 686.621094 316.636719 685.0625 321.742188 681.738281 327.039062 C 678.585938 331.113281 674.976562 333.695312 670.3125 335.824219 C 660.636719 339.734375 650.511719 341.285156 640.136719 341.761719 C 639.96875 344.558594 639.972656 346.972656 640.777344 349.679688 C 641.992188 351.496094 641.992188 351.496094 644.097656 352.558594 C 649.757812 354.285156 656.03125 353.710938 661.726562 352.425781 C 664.5625 351.730469 667.378906 350.972656 670.195312 350.195312 C 671.738281 349.800781 671.738281 349.800781 674.054688 349.441406 C 675.285156 350.429688 675.910156 351.230469 676.617188 352.640625 C 676.710938 354.078125 676.757812 355.519531 676.777344 356.960938 L 676.828125 359.308594 C 676.597656 361.824219 676.035156 363.3125 674.695312 365.441406 C 670.835938 369.027344 665.125 370.570312 660.140625 371.785156 C 649.910156 373.960938 638.683594 374.308594 628.617188 371.199219 C 626.527344 370.324219 624.707031 369.300781 622.855469 368 L 620.816406 366.601562 C 617.496094 363.28125 615.476562 359.628906 614.121094 355.152344 C 613.113281 351.265625 612.960938 347.558594 613.015625 343.558594 L 613.035156 341.4375 C 613.140625 335.78125 613.742188 330.59375 615.175781 325.121094 L 615.488281 323.867188 C 617.824219 314.660156 621.972656 306.394531 628.558594 299.496094 C 633.414062 294.613281 638.648438 290.71875 645.292969 288.679688 C 654.992188 286.164062 665.070312 285.753906 674.597656 289.320312 M 649.738281 307.199219 C 647.921875 308.585938 647.921875 308.585938 646.535156 310.398438 L 645.703125 311.398438 C 643.515625 314.195312 642.140625 317.160156 641.417969 320.640625 C 641.386719 321.921875 641.382812 323.199219 641.417969 324.480469 C 647.613281 323.914062 653.15625 323.050781 658.695312 320 C 660.03125 318.945312 660.597656 318.113281 661.363281 316.585938 C 661.941406 314.738281 662.089844 313.210938 662.097656 311.28125 L 662.128906 309.453125 C 662.023438 307.824219 662.023438 307.824219 661.050781 306.699219 C 659.910156 305.777344 659.910156 305.777344 657.976562 305.359375 C 654.867188 305.257812 652.527344 305.84375 649.738281 307.199219 " fill-opacity="1" fill-rule="nonzero"/><path fill="#fe8500" d="M 392.214844 266.761719 L 394.570312 266.734375 L 396.839844 266.734375 L 398.898438 266.722656 C 400.855469 266.886719 402.238281 267.25 403.976562 268.160156 C 404.59375 269.730469 404.59375 269.730469 404.617188 272 C 404.226562 274.328125 403.65625 276.597656 403.058594 278.878906 C 402.75 280.089844 402.445312 281.300781 402.140625 282.511719 L 401.71875 284.121094 C 401.367188 285.421875 401.367188 285.421875 401.417969 286.71875 L 402.5625 286.785156 C 404.273438 286.894531 405.984375 287.027344 407.695312 287.160156 L 409.496094 287.265625 C 411.128906 287.398438 412.636719 287.578125 414.214844 288 L 415.628906 289.335938 C 416.300781 291.800781 415.964844 293.804688 415.417969 296.238281 L 415.160156 297.5625 C 414.546875 300.542969 413.667969 303.199219 412.296875 305.921875 C 410.375 307.199219 410.375 307.199219 408.808594 307.402344 L 406.96875 307.464844 L 404.976562 307.539062 L 402.894531 307.601562 L 400.796875 307.675781 C 399.082031 307.734375 397.371094 307.789062 395.65625 307.839844 C 393.324219 317.464844 391.238281 327.121094 389.335938 336.839844 L 389.03125 338.378906 C 388.746094 339.835938 388.460938 341.292969 388.179688 342.753906 L 387.921875 344.070312 C 387.496094 346.3125 387.179688 348.4375 387.335938 350.71875 L 387.976562 351.359375 C 388.859375 351.421875 389.746094 351.445312 390.632812 351.449219 L 392.261719 351.488281 C 393.398438 351.507812 394.539062 351.519531 395.675781 351.523438 C 397.222656 351.566406 398.628906 351.648438 400.136719 352 C 401.46875 353.421875 401.46875 353.421875 402.054688 355.199219 C 402.585938 358.972656 402.257812 363.117188 401.285156 366.800781 C 400.777344 368 400.777344 368 399.257812 369.519531 C 394.292969 371.746094 388.917969 372.8125 383.496094 373.121094 L 381.847656 373.222656 C 376.769531 373.390625 371.964844 372.636719 367.3125 370.539062 C 363.96875 368.628906 361.375 366.027344 359.175781 362.878906 C 357.359375 358.855469 357.6875 354.417969 357.894531 350.078125 C 358.300781 347.007812 358.902344 343.992188 359.535156 340.960938 C 359.707031 340.109375 359.878906 339.261719 360.050781 338.410156 C 360.503906 336.15625 360.96875 333.90625 361.441406 331.65625 C 361.742188 330.203125 362.046875 328.75 362.347656 327.292969 C 363.324219 322.605469 364.304688 317.914062 365.308594 313.230469 L 365.792969 310.960938 C 366.214844 309.121094 366.214844 309.121094 366.855469 307.199219 L 365.429688 307.265625 C 362.714844 307.34375 360.378906 307.375 357.777344 306.558594 L 356.617188 305.28125 C 356.378906 301.582031 356.867188 298.402344 357.816406 294.839844 L 358.152344 293.480469 C 358.699219 291.363281 359.234375 289.835938 360.457031 288 C 362.832031 287.207031 365.136719 287.132812 367.617188 287 L 369.070312 286.917969 C 370.253906 286.847656 371.433594 286.785156 372.617188 286.71875 L 372.828125 285.191406 C 373.378906 281.40625 373.988281 277.632812 374.734375 273.878906 L 375.128906 271.859375 C 375.816406 270.078125 375.816406 270.078125 377.203125 268.601562 C 381.589844 265.984375 387.269531 266.761719 392.214844 266.757812 " fill-opacity="1" fill-rule="nonzero"/><path fill="#0197a9" d="M 911.417969 156 L 913.117188 156 C 935.808594 156.027344 960.894531 158.351562 981.015625 169.839844 C 982.613281 170.792969 984.175781 171.792969 985.738281 172.800781 C 986.640625 173.359375 987.550781 173.921875 988.457031 174.480469 C 1002.476562 183.21875 1016.40625 194.59375 1025.285156 208.71875 C 1026.183594 210.121094 1027.128906 211.488281 1028.078125 212.859375 C 1034.503906 222.28125 1039.507812 232.222656 1042.695312 243.199219 L 1038.882812 243.074219 C 1037.375 243.113281 1037.375 243.113281 1035.65625 244.480469 L 1035.0625 242.710938 C 1031.730469 233.144531 1027.296875 223.53125 1021.027344 215.515625 L 1020.296875 214.398438 L 1020.296875 212.480469 L 1018.375 211.839844 C 1017.488281 210.71875 1016.636719 209.570312 1015.816406 208.398438 C 1012.804688 204.304688 1009.367188 200.710938 1005.777344 197.121094 L 1004.210938 195.542969 C 1001.976562 193.335938 999.796875 191.261719 997.203125 189.480469 L 995.335938 188.160156 L 995.335938 186.878906 L 993.984375 186.414062 C 991.8125 185.457031 990.0625 184.226562 988.136719 182.839844 C 984.890625 180.535156 981.601562 178.464844 978.054688 176.640625 L 978.054688 175.359375 L 976.769531 175.183594 C 974.789062 174.703125 973.066406 173.945312 971.230469 173.070312 C 954.75 165.242188 936.867188 161.804688 918.703125 161.835938 L 916.207031 161.832031 C 914.476562 161.832031 912.746094 161.832031 911.015625 161.835938 C 908.824219 161.839844 906.628906 161.839844 904.433594 161.835938 C 902.308594 161.832031 900.1875 161.832031 898.0625 161.835938 L 895.714844 161.832031 C 888.050781 161.851562 880.632812 162.46875 873.097656 163.839844 L 869.195312 164.507812 C 840.585938 169.558594 813.347656 179.144531 785.933594 188.503906 C 780.113281 190.496094 774.285156 192.480469 768.460938 194.464844 C 754.898438 199.085938 741.285156 203.425781 727.503906 207.359375 C 725.613281 207.898438 723.722656 208.445312 721.832031 208.996094 C 714.511719 211.105469 707.105469 212.800781 699.65625 214.398438 L 697.808594 214.800781 C 676.335938 219.40625 654.507812 222.335938 632.5625 223.277344 C 631.5625 223.335938 630.5625 223.417969 629.5625 223.511719 C 622.828125 224.136719 616.09375 224.117188 609.332031 224.117188 C 607.242188 224.121094 605.152344 224.132812 603.0625 224.144531 C 594.785156 224.167969 586.652344 223.792969 578.421875 222.898438 C 576.824219 222.726562 575.222656 222.566406 573.621094 222.40625 C 543.296875 219.394531 514.84375 211.457031 486.535156 200.320312 C 487.742188 199.019531 488.382812 198.425781 490.089844 197.824219 C 493.289062 197.730469 495.8125 198.800781 498.777344 199.921875 C 500.101562 200.398438 501.429688 200.878906 502.757812 201.351562 L 504.871094 202.113281 C 523.296875 208.6875 541.804688 213.199219 561.222656 215.441406 L 562.695312 215.679688 L 563.335938 216.320312 C 575.589844 218.46875 588.046875 219.039062 600.457031 219.519531 L 602.761719 219.613281 C 636.476562 220.78125 672.066406 216.960938 704.777344 208.640625 L 706.167969 208.285156 C 726.335938 203.132812 746.25 197.121094 765.902344 190.246094 C 775.476562 186.902344 785.085938 183.648438 794.691406 180.386719 L 799.359375 178.796875 C 812.394531 174.355469 825.480469 170.179688 838.734375 166.429688 C 840.191406 166.015625 841.652344 165.597656 843.109375 165.175781 C 858.335938 160.765625 874.355469 157.996094 890.171875 156.910156 C 891.214844 156.832031 892.257812 156.742188 893.296875 156.636719 C 899.332031 156.054688 905.355469 156.003906 911.417969 156 " fill-opacity="1" fill-rule="nonzero"/><path fill="#00adc0" d="M 708.054688 424.800781 L 709.417969 424.761719 C 711.363281 424.746094 712.902344 424.875 714.691406 425.648438 L 715.65625 426.878906 C 716.085938 430.523438 715.253906 434.042969 714.496094 437.601562 L 714.175781 439.246094 L 713.84375 440.832031 L 713.550781 442.257812 C 713.097656 443.519531 713.097656 443.519531 712.167969 444.609375 C 711.175781 445.441406 711.175781 445.441406 709.894531 446.078125 C 707.550781 446.339844 705.210938 446.570312 702.859375 446.765625 C 698.855469 447.160156 695.40625 448.019531 691.890625 450.082031 C 689.339844 452.234375 687.675781 454.480469 686.292969 457.515625 C 684.726562 461.902344 683.894531 466.476562 683.015625 471.039062 L 682.710938 472.617188 C 682.179688 475.363281 681.65625 478.105469 681.140625 480.851562 C 680.382812 484.890625 679.605469 488.925781 678.816406 492.960938 L 678.433594 494.96875 C 676.746094 503.53125 676.746094 503.53125 675.335938 506.238281 C 674.292969 507.351562 674.292969 507.351562 672.777344 508.160156 C 671.113281 508.3125 669.628906 508.355469 667.972656 508.296875 L 666.578125 508.265625 C 665.605469 508.238281 664.636719 508.207031 663.664062 508.171875 C 662.179688 508.125 660.695312 508.089844 659.207031 508.066406 C 658.261719 508.039062 657.320312 508.007812 656.375 507.976562 L 655.027344 507.957031 C 653.773438 507.898438 653.773438 507.898438 651.65625 507.519531 C 650.558594 506.394531 650.558594 506.394531 649.738281 504.960938 C 649.636719 503.589844 649.636719 503.589844 649.839844 502.101562 C 649.917969 501.535156 649.992188 500.972656 650.070312 500.390625 C 650.621094 497.09375 651.246094 493.820312 651.917969 490.546875 L 652.382812 488.226562 C 652.800781 486.164062 653.21875 484.101562 653.636719 482.039062 C 654.074219 479.890625 654.507812 477.742188 654.941406 475.597656 L 655.464844 472.992188 L 655.730469 471.6875 L 656.523438 467.761719 C 657.628906 462.304688 658.710938 456.84375 659.777344 451.378906 L 660.933594 445.492188 C 661.175781 444.265625 661.410156 443.039062 661.648438 441.816406 C 661.972656 440.125 662.304688 438.4375 662.640625 436.746094 L 662.917969 435.277344 C 663.519531 432.265625 664.34375 429.628906 665.738281 426.878906 C 667.65625 425.601562 667.65625 425.601562 669.617188 425.433594 L 672 425.429688 L 673.273438 425.425781 C 674.160156 425.425781 675.046875 425.425781 675.933594 425.433594 C 677.292969 425.441406 678.652344 425.433594 680.011719 425.425781 C 680.875 425.425781 681.738281 425.425781 682.597656 425.429688 L 684.980469 425.433594 L 686.855469 425.601562 L 688.136719 426.878906 C 688.308594 428.601562 688.191406 430.265625 688.136719 432 L 689.214844 431.25 C 695.570312 426.914062 700.242188 424.859375 708.054688 424.800781 " fill-opacity="1" fill-rule="nonzero"/><path fill="#e86401" d="M 264.457031 268.800781 L 266.375 269.441406 C 267.242188 270.789062 267.242188 270.789062 268.054688 272.480469 L 268.882812 274.152344 C 271.03125 279.382812 270.648438 285.644531 270.214844 291.199219 C 269.128906 296.992188 266.886719 302.308594 263.152344 306.875 C 261.703125 308.515625 260.210938 310.101562 258.695312 311.679688 L 257.523438 312.976562 C 253.53125 317.238281 248.722656 320.480469 243.976562 323.839844 C 245.480469 329.324219 247.507812 334.589844 249.578125 339.878906 L 250.609375 342.535156 C 252.613281 347.675781 254.644531 352.796875 256.796875 357.875 C 258.390625 361.648438 259.019531 364.550781 258.695312 368.640625 C 257.539062 369.921875 256.695312 370.375 255.078125 370.914062 C 252.921875 371.324219 250.773438 371.316406 248.582031 371.332031 L 247.121094 371.339844 C 246.101562 371.347656 245.078125 371.351562 244.058594 371.355469 C 242.507812 371.359375 240.957031 371.378906 239.40625 371.398438 C 238.414062 371.402344 237.417969 371.40625 236.421875 371.410156 L 235.035156 371.433594 C 231.753906 371.417969 229.578125 370.707031 226.695312 369.28125 L 226.695312 367.359375 L 227.335938 368 C 229.199219 368.074219 231.046875 368.105469 232.910156 368.109375 L 234.609375 368.113281 C 235.800781 368.117188 236.992188 368.117188 238.183594 368.117188 C 240.003906 368.121094 241.820312 368.132812 243.644531 368.144531 C 244.796875 368.144531 245.953125 368.148438 247.109375 368.148438 L 248.761719 368.160156 L 250.304688 368.15625 L 251.660156 368.15625 C 253.152344 367.972656 254.195312 367.457031 255.496094 366.71875 C 255.222656 362.09375 253.246094 358.226562 251.375 354.039062 C 250.675781 352.4375 249.976562 350.832031 249.285156 349.226562 C 249.109375 348.820312 248.933594 348.414062 248.75 347.996094 C 246.945312 343.8125 245.234375 339.601562 243.578125 335.359375 L 242.773438 333.363281 C 241.070312 328.957031 240.101562 324.683594 239.496094 320 L 241.617188 319.082031 C 248.730469 315.511719 255.394531 309.136719 259.816406 302.558594 C 264.039062 295.566406 266.382812 288.171875 266.578125 280.039062 C 266.53125 276 265.941406 272.550781 264.457031 268.800781 M 345.738281 300.800781 L 347.65625 301.441406 C 350.453125 305.652344 351.03125 311.234375 351.417969 316.167969 C 351.902344 326.683594 349.039062 337.621094 344.578125 347.078125 C 340.761719 354.273438 335.816406 360.640625 329.015625 365.199219 C 320.546875 370.300781 311.8125 372.980469 301.984375 373.378906 C 293.542969 373.515625 286.003906 371.460938 278.578125 367.46875 L 277.257812 366.71875 L 277.894531 364.800781 L 279.457031 365.640625 C 288.609375 369.972656 298.652344 369.914062 308.617188 369.28125 C 315.074219 368.429688 321.128906 366.007812 326.414062 362.238281 C 334.519531 355.914062 339.207031 347.628906 343.054688 338.238281 C 347.03125 327.261719 347.652344 315.523438 346.375 304 C 346.183594 302.929688 345.96875 301.863281 345.738281 300.800781 " fill-opacity="1" fill-rule="nonzero"/><path fill="#e86400" d="M 202.375 325.121094 L 211.335938 325.121094 L 212.617188 328.320312 L 206.214844 328.320312 L 205.984375 331.050781 C 205.605469 334.828125 204.910156 338.511719 204.160156 342.230469 L 203.742188 344.335938 C 203.449219 345.789062 203.15625 347.246094 202.863281 348.699219 C 202.417969 350.925781 201.972656 353.148438 201.53125 355.375 L 200.679688 359.632812 L 200.28125 361.644531 L 199.898438 363.519531 L 199.570312 365.164062 C 199.144531 366.84375 198.652344 368.355469 197.898438 369.921875 C 195.054688 371.3125 192.257812 371.378906 189.152344 371.347656 L 187.765625 371.347656 C 186.804688 371.34375 185.84375 371.339844 184.882812 371.332031 C 183.417969 371.320312 181.949219 371.320312 180.480469 371.320312 C 179.542969 371.316406 178.609375 371.3125 177.671875 371.308594 L 176.347656 371.304688 C 174.265625 371.285156 172.367188 371.195312 170.375 370.558594 L 170.375 369.28125 C 172.398438 368.269531 174.597656 368.40625 176.820312 368.296875 L 178.367188 368.214844 C 179.996094 368.128906 181.625 368.042969 183.257812 367.960938 C 184.359375 367.902344 185.464844 367.84375 186.570312 367.785156 C 189.277344 367.640625 191.988281 367.5 194.695312 367.359375 L 194.886719 365.328125 C 195.609375 358.039062 196.789062 350.886719 198.191406 343.699219 C 198.539062 341.894531 198.882812 340.09375 199.226562 338.289062 C 199.449219 337.128906 199.671875 335.96875 199.894531 334.808594 L 200.203125 333.199219 L 200.5 331.679688 L 200.757812 330.363281 C 201.1875 328.585938 201.796875 326.855469 202.375 325.121094 " fill-opacity="1" fill-rule="nonzero"/><path fill="#e86401" d="M 312.777344 302.558594 L 314.554688 302.550781 C 316.441406 302.734375 317.816406 303.125 319.496094 304 C 320.015625 305.679688 320.015625 305.679688 320.136719 307.199219 L 318.816406 306.558594 C 316.496094 305.769531 314.902344 305.671875 312.457031 305.921875 C 309.433594 306.863281 307.160156 308.445312 304.976562 310.71875 C 300.359375 316.414062 298.761719 323.890625 297.097656 330.878906 L 296.710938 332.40625 C 296.335938 334.859375 296.363281 337.285156 296.375 339.761719 L 296.367188 341.265625 C 296.375 344.269531 296.597656 347.117188 297.097656 350.078125 C 295.9375 349.960938 295.9375 349.960938 294.535156 349.441406 C 292.597656 346.980469 291.824219 344.175781 291.335938 341.121094 C 290.472656 332.808594 292.953125 324.152344 296.074219 316.523438 C 298.210938 311.753906 300.8125 308.316406 304.757812 304.902344 C 307.363281 303.09375 309.628906 302.542969 312.777344 302.558594 M 615.816406 267.519531 L 617.097656 267.519531 C 616.359375 273.261719 615.203125 278.871094 613.914062 284.507812 C 613.007812 288.546875 612.234375 292.597656 611.507812 296.671875 C 610.390625 302.917969 609.1875 309.144531 607.960938 315.371094 L 607.671875 316.8125 C 607.089844 319.777344 606.5 322.738281 605.914062 325.699219 C 605.226562 329.167969 604.539062 332.632812 603.855469 336.097656 C 603.472656 338.023438 603.09375 339.953125 602.710938 341.878906 C 601.832031 346.273438 600.984375 350.675781 600.167969 355.082031 L 599.738281 357.402344 C 599.476562 358.8125 599.222656 360.21875 598.972656 361.628906 C 597.824219 367.847656 597.824219 367.847656 595.976562 370.558594 C 593.976562 371.519531 591.714844 371.273438 589.527344 371.261719 L 587.277344 371.257812 L 584.9375 371.242188 L 582.566406 371.230469 C 580.636719 371.222656 578.707031 371.214844 576.777344 371.199219 L 576.136719 369.921875 C 579.542969 368.164062 582.863281 368.566406 586.578125 368.691406 C 589.507812 368.75 592.050781 368.78125 594.695312 367.359375 C 596.199219 363.839844 596.742188 359.96875 597.460938 356.226562 L 597.886719 354.046875 C 598.347656 351.699219 598.800781 349.351562 599.257812 347 L 600.210938 342.105469 C 601.003906 338.042969 601.792969 333.980469 602.582031 329.917969 C 603.207031 326.699219 603.835938 323.480469 604.460938 320.261719 L 604.792969 318.566406 L 605.738281 313.71875 L 606.046875 312.132812 C 607.4375 304.992188 608.835938 297.851562 610.253906 290.714844 C 610.4375 289.785156 610.621094 288.855469 610.804688 287.929688 C 611.78125 282.933594 612.84375 277.957031 613.988281 273 L 614.316406 271.5625 C 614.585938 270.425781 614.878906 269.292969 615.175781 268.160156 Z M 615.816406 267.519531 " fill-opacity="1" fill-rule="nonzero"/><path fill="#0198aa" d="M 395.695312 442.679688 L 397.679688 442.96875 C 399.496094 443.519531 399.496094 443.519531 401.015625 444.851562 L 402.054688 446.078125 L 401.417969 447.359375 L 400.777344 446.441406 C 399.441406 445.25 399.441406 445.25 397.136719 444.921875 C 394.296875 444.6875 391.871094 444.898438 389.257812 446.078125 C 386.898438 447.597656 384.96875 449.1875 383.503906 451.605469 C 381.230469 456.128906 380.441406 461.109375 379.488281 466.035156 C 379.171875 467.667969 378.847656 469.296875 378.519531 470.929688 C 378.058594 473.210938 377.605469 475.496094 377.152344 477.78125 C 376.128906 482.945312 375.085938 488.109375 374.027344 493.265625 C 373.699219 494.859375 373.382812 496.453125 373.066406 498.050781 L 372.464844 500.96875 L 372.203125 502.3125 C 371.820312 504.121094 371.492188 505.410156 370.304688 506.847656 L 369.417969 507.519531 C 368.777344 506.238281 368.777344 506.238281 368.882812 503.886719 C 369.621094 495.585938 371.066406 487.484375 372.746094 479.328125 C 373.179688 477.234375 373.597656 475.132812 374.019531 473.035156 C 378.3125 451.738281 378.3125 451.738281 381.722656 447.773438 C 384.203125 445.46875 386.871094 443.390625 390.152344 442.429688 C 392.101562 442.207031 393.757812 442.375 395.695312 442.679688 " fill-opacity="1" fill-rule="nonzero"/><path fill="#e86401" d="M 222.417969 273.71875 L 223.976562 273.6875 C 227.664062 273.6875 231.03125 274.207031 234.375 275.839844 C 235.5 276.789062 235.5 276.789062 236.296875 277.761719 L 236.296875 279.039062 L 231.816406 277.761719 L 217.738281 277.761719 L 211.976562 305.921875 L 208.777344 305.921875 L 207.496094 304.640625 C 207.261719 298.855469 208.761719 292.8125 209.886719 287.152344 C 210.082031 286.160156 210.269531 285.167969 210.449219 284.171875 C 210.710938 282.714844 210.992188 281.265625 211.285156 279.816406 L 211.515625 278.464844 C 211.78125 277.222656 211.78125 277.222656 212.617188 275.199219 C 215.785156 273.609375 218.949219 273.707031 222.417969 273.71875 M 414.855469 291.199219 L 416.136719 291.199219 C 415.863281 292.816406 415.582031 294.429688 415.296875 296.039062 L 415.066406 297.40625 C 414.515625 300.484375 413.722656 303.125 412.296875 305.921875 C 410.375 307.199219 410.375 307.199219 408.808594 307.402344 L 406.96875 307.464844 L 404.976562 307.539062 L 402.894531 307.601562 L 400.796875 307.675781 C 399.082031 307.734375 397.371094 307.789062 395.65625 307.839844 C 393.070312 318.511719 390.835938 329.214844 388.792969 340 L 388.511719 341.472656 C 388.335938 342.386719 388.164062 343.300781 387.992188 344.214844 C 387.652344 346.011719 387.277344 347.703125 386.695312 349.441406 L 384.777344 348.800781 C 384.582031 343.386719 385.101562 338.453125 386.214844 333.160156 L 387.105469 328.789062 L 387.550781 326.605469 C 387.949219 324.605469 388.320312 322.601562 388.667969 320.59375 L 388.992188 318.769531 C 389.1875 317.65625 389.378906 316.539062 389.5625 315.425781 C 390.191406 311.945312 391.222656 308.9375 393.097656 305.921875 L 394.375 304.640625 C 395.773438 304.457031 395.773438 304.457031 397.492188 304.417969 L 399.367188 304.363281 L 401.335938 304.320312 C 402.613281 304.292969 403.894531 304.257812 405.171875 304.21875 L 406.894531 304.183594 C 408.558594 303.988281 409.609375 303.621094 411.015625 302.71875 C 411.671875 301.359375 411.671875 301.359375 412.015625 299.761719 C 412.796875 296.816406 413.753906 294.039062 414.855469 291.199219 " fill-opacity="1" fill-rule="nonzero"/><path fill="#0198aa" d="M 443.65625 442.238281 C 445.738281 443.519531 445.738281 443.519531 446.855469 444.800781 L 446.214844 446.078125 L 445.214844 445.441406 C 443.0625 444.558594 441.496094 444.605469 439.175781 444.800781 C 436.460938 445.472656 434.316406 446.550781 431.976562 448.078125 C 429.175781 451.011719 428.046875 454.113281 427.070312 458.039062 C 426.445312 460.90625 425.898438 463.789062 425.351562 466.675781 C 425.144531 467.738281 424.933594 468.800781 424.726562 469.863281 C 424.179688 472.648438 423.640625 475.429688 423.105469 478.214844 C 422.242188 482.683594 421.375 487.152344 420.5 491.617188 C 420.195312 493.175781 419.898438 494.734375 419.597656 496.292969 L 419.042969 499.148438 L 418.796875 500.457031 C 418.382812 502.546875 417.980469 503.796875 416.777344 505.601562 C 415.496094 503.679688 415.496094 503.679688 415.332031 501.796875 C 415.441406 498.335938 416.179688 494.945312 416.828125 491.550781 L 417.246094 489.34375 C 417.535156 487.8125 417.828125 486.28125 418.125 484.75 C 418.574219 482.402344 419.015625 480.050781 419.453125 477.699219 C 419.738281 476.210938 420.023438 474.71875 420.308594 473.230469 L 420.703125 471.097656 L 421.089844 469.121094 L 421.421875 467.382812 C 421.949219 465.753906 422.601562 465.167969 423.816406 464 C 424.34375 461.746094 424.34375 461.746094 424.457031 459.519531 L 423.816406 458.238281 C 424.457031 454.609375 425.316406 450.886719 427.367188 447.78125 C 428.464844 446.632812 429.554688 445.710938 430.855469 444.800781 L 432.015625 443.96875 C 435.621094 441.785156 439.546875 441.625 443.65625 442.238281 " fill-opacity="1" fill-rule="nonzero"/><path fill="#e86401" d="M 491.015625 294.398438 L 492.296875 294.398438 C 492.074219 302.429688 490.441406 310.082031 488.816406 317.921875 L 487.960938 322.109375 C 487.515625 324.285156 487.070312 326.460938 486.625 328.640625 C 485.546875 333.910156 484.5 339.183594 483.476562 344.460938 C 483.046875 346.652344 482.621094 348.84375 482.191406 351.035156 C 481.914062 352.445312 481.640625 353.855469 481.371094 355.269531 C 480.992188 357.238281 480.609375 359.207031 480.21875 361.171875 L 479.886719 362.9375 C 478.816406 368.28125 478.816406 368.28125 476.9375 370.558594 C 474.863281 371.492188 472.589844 371.273438 470.347656 371.261719 L 468.007812 371.257812 L 465.578125 371.242188 L 463.113281 371.230469 C 461.109375 371.222656 459.101562 371.214844 457.097656 371.199219 L 456.457031 369.921875 L 459.65625 369.921875 L 459.65625 368.640625 L 475.015625 368 C 476.558594 362.863281 477.902344 357.675781 479.058594 352.441406 L 479.367188 351.050781 C 483.542969 332.230469 487.21875 313.296875 491.015625 294.398438 " fill-opacity="1" fill-rule="nonzero"/><path fill="#0195a7" d="M 351.496094 126.71875 L 354.695312 126.71875 L 354.054688 128 C 356.375 128.84375 357.957031 129.28125 360.457031 129.28125 C 362.039062 129.933594 363.601562 130.640625 365.136719 131.398438 L 368.039062 132.804688 L 369.625 133.578125 C 371.480469 134.464844 373.34375 135.335938 375.214844 136.195312 L 379.175781 138.039062 L 381.09375 138.914062 C 384.382812 140.460938 386.898438 141.847656 389.257812 144.640625 L 387.976562 146.558594 L 385.855469 145.160156 C 383.828125 143.890625 381.800781 142.835938 379.613281 141.871094 C 375.199219 139.890625 370.847656 137.792969 366.492188 135.691406 C 359.574219 132.039062 359.574219 132.039062 352.136719 129.921875 L 351.945312 131.945312 C 351.449219 135.90625 350.402344 139.738281 349.417969 143.601562 L 348.804688 146.027344 C 347.613281 150.738281 346.34375 155.429688 345 160.101562 C 343.542969 165.257812 342.417969 170.496094 341.289062 175.734375 L 340.828125 177.824219 L 340.421875 179.703125 L 339.976562 181.121094 L 338.695312 181.761719 C 339.097656 177.515625 339.800781 173.441406 340.730469 169.28125 L 341.152344 167.359375 C 342.652344 160.628906 344.304688 153.941406 345.988281 147.253906 C 346.503906 145.203125 347.019531 143.152344 347.53125 141.097656 L 348.523438 137.136719 L 348.984375 135.300781 C 349.714844 132.398438 350.496094 129.546875 351.496094 126.71875 " fill-opacity="1" fill-rule="nonzero"/><path fill="#0198aa" d="M 413.578125 66.558594 L 414.855469 66.558594 C 414.738281 67.640625 414.738281 67.640625 414.214844 69.121094 C 408.199219 75.519531 400.84375 80.683594 393.863281 85.972656 C 391.59375 87.695312 389.324219 89.425781 387.054688 91.160156 L 385.71875 92.183594 C 382.246094 94.839844 378.785156 97.515625 375.335938 100.199219 L 373.878906 101.332031 L 372.507812 102.402344 L 371.21875 103.402344 C 370.210938 104.207031 369.21875 105.027344 368.238281 105.867188 L 366.855469 106.878906 C 365.058594 106.71875 365.058594 106.71875 363.65625 106.238281 L 363.65625 104.960938 C 364.796875 103.984375 365.96875 103.050781 367.175781 102.160156 L 368.308594 101.304688 C 369.527344 100.386719 370.753906 99.472656 371.976562 98.558594 C 372.761719 97.96875 373.550781 97.378906 374.335938 96.789062 C 375.574219 95.863281 376.8125 94.933594 378.046875 94.007812 C 381.140625 91.699219 384.207031 89.359375 387.269531 87.015625 C 391.625 83.683594 395.976562 80.363281 400.457031 77.199219 C 403.441406 75.089844 406.390625 72.9375 409.296875 70.71875 L 410.378906 69.902344 C 412.269531 68.484375 412.269531 68.484375 413.578125 66.558594 " fill-opacity="1" fill-rule="nonzero"/><path fill="#e86401" d="M 684.9375 313.601562 L 686.214844 313.601562 C 686.070312 318.003906 685.007812 321.28125 682.921875 325.164062 C 680.167969 329.519531 676.84375 332.515625 672.296875 334.921875 C 662.128906 339.558594 651.21875 341.25 640.136719 341.761719 L 640.136719 348.800781 L 638.855469 348.800781 C 638.019531 347.386719 637.582031 346.429688 637.523438 344.773438 L 637.695312 343.28125 L 637.84375 341.773438 L 638.214844 340.480469 C 640.480469 338.972656 641.984375 338.828125 644.675781 338.464844 L 647.4375 338.074219 C 648.878906 337.878906 650.316406 337.683594 651.757812 337.488281 C 659.917969 336.390625 667.402344 334.929688 674.351562 330.226562 C 678.578125 326.933594 681.398438 323.113281 683.714844 318.308594 C 684.316406 316.746094 684.660156 315.25 684.9375 313.601562 M 675.335938 360.320312 L 676.617188 360.320312 C 676.175781 362.398438 676.175781 362.398438 675.335938 364.800781 C 671.03125 368.746094 665.613281 370.390625 660.027344 371.695312 C 649.742188 373.890625 638.765625 374.332031 628.617188 371.199219 C 624.9375 369.65625 621.972656 367.449219 619.015625 364.800781 L 619.65625 363.519531 L 624.777344 366.078125 L 624.777344 367.359375 C 625.949219 367.667969 627.121094 367.976562 628.296875 368.28125 L 630.277344 368.796875 C 641.488281 371.277344 653.832031 370.511719 664.777344 367.152344 C 665.699219 366.84375 666.621094 366.523438 667.535156 366.199219 L 668.800781 365.765625 C 670.453125 365.128906 671.847656 364.457031 673.085938 363.175781 C 673.84375 362.230469 674.59375 361.277344 675.335938 360.320312 " fill-opacity="1" fill-rule="nonzero"/><path fill="#0197a9" d="M 350.214844 412.160156 L 351.496094 412.160156 C 351.144531 414.320312 350.820312 415.414062 349.578125 417.28125 C 347.761719 417.886719 346.585938 418.011719 344.699219 418.042969 L 342.886719 418.074219 L 340.929688 418.101562 L 338.90625 418.136719 C 336.769531 418.171875 334.632812 418.207031 332.496094 418.238281 C 329.695312 418.285156 326.890625 418.332031 324.089844 418.378906 L 322.152344 418.40625 C 318.664062 418.46875 315.246094 418.542969 311.816406 419.199219 C 309.371094 422.875 308.980469 427.679688 308.175781 431.960938 L 307.742188 434.210938 C 307.386719 436.03125 307.039062 437.855469 306.695312 439.679688 L 303.496094 439.039062 C 303.1875 433.050781 304.066406 426.875 306.617188 421.398438 C 307.84375 419.238281 309.207031 417.550781 311.175781 416 C 313.257812 415.441406 313.257812 415.441406 315.015625 415.359375 L 315.65625 416 C 316.625 416.070312 317.597656 416.09375 318.566406 416.101562 L 320.445312 416.121094 L 322.488281 416.128906 L 324.578125 416.140625 C 326.039062 416.148438 327.5 416.152344 328.960938 416.152344 C 331.199219 416.160156 333.4375 416.179688 335.675781 416.199219 C 337.09375 416.203125 338.511719 416.207031 339.929688 416.210938 L 341.960938 416.234375 L 343.855469 416.226562 L 345.523438 416.234375 C 347.074219 416.085938 347.074219 416.085938 348.453125 415.144531 C 349.738281 414.09375 349.738281 414.09375 350.214844 412.160156 " fill-opacity="1" fill-rule="nonzero"/><path fill="#e86401" d="M 459.703125 303.789062 C 460.773438 304.25 461.816406 304.761719 462.855469 305.28125 L 462.855469 308.480469 L 461.746094 307.855469 C 459.785156 306.96875 458.222656 306.945312 456.097656 306.996094 C 452.726562 307.4375 449.933594 308.960938 447.167969 310.871094 C 443.242188 314.441406 440.6875 320.144531 438.9375 325.121094 C 437.246094 331.125 437.027344 337.484375 436.617188 343.679688 L 435.335938 343.679688 C 435.027344 334.085938 434.878906 324.019531 439.417969 315.320312 C 440.160156 314.089844 440.933594 312.875 441.738281 311.679688 L 442.535156 310.453125 C 444.617188 307.640625 447.660156 305.667969 450.695312 304 C 453.621094 303.0625 456.765625 302.835938 459.703125 303.789062 M 581.257812 304.640625 L 581.257812 307.199219 L 579.175781 307.390625 L 576.417969 307.679688 L 575.050781 307.800781 C 571.628906 308.179688 569.410156 309.136719 566.535156 311.039062 C 562.835938 313.941406 560.246094 317.710938 558.214844 321.921875 C 555.527344 328.859375 554.085938 336.234375 554.375 343.679688 L 552.457031 343.039062 C 552.089844 334.257812 553.105469 325.464844 556.9375 317.441406 C 559.277344 313.425781 561.980469 309.78125 565.894531 307.199219 C 571.269531 304.316406 575.261719 303.882812 581.257812 304.640625 " fill-opacity="1" fill-rule="nonzero"/><path fill="#0198aa" d="M 309.894531 459.519531 L 309.894531 460.800781 L 334.214844 461.441406 L 334.214844 462.71875 C 330.855469 463.285156 327.660156 463.429688 324.253906 463.378906 L 321.113281 463.355469 C 319.480469 463.335938 317.847656 463.320312 316.21875 463.296875 C 314.628906 463.28125 313.042969 463.269531 311.453125 463.257812 L 309.988281 463.230469 C 307.15625 463.21875 304.808594 463.464844 302.214844 464.640625 C 301.375 466.335938 301.375 466.335938 301.097656 468.398438 L 300.675781 470.667969 L 300.296875 472.960938 L 299.898438 474.992188 C 299.140625 478.972656 298.84375 482.988281 299.015625 487.039062 L 296.457031 486.398438 C 295.636719 482.960938 296.027344 480.101562 296.617188 476.679688 L 296.890625 475.050781 C 297.160156 473.496094 297.445312 471.949219 297.738281 470.398438 L 298.160156 468.152344 C 298.65625 465.964844 299.136719 464.085938 300.453125 462.25 C 301.375 461.359375 301.375 461.359375 303.496094 460.160156 C 305.625 459.640625 307.703125 459.519531 309.894531 459.519531 " fill-opacity="1" fill-rule="nonzero"/><path fill="#e86401" d="M 572.9375 361.601562 L 574.855469 362.238281 L 574.855469 363.519531 C 573.441406 364.511719 571.988281 365.441406 570.496094 366.320312 L 569.175781 367.105469 C 563.261719 370.53125 557.582031 372.429688 550.738281 372.640625 C 545.351562 372.585938 540.394531 371.238281 535.640625 368.714844 C 533.9375 367.613281 532.679688 366.3125 531.335938 364.800781 L 531.976562 363.519531 L 533.578125 365 C 536.257812 367.234375 539.183594 368.144531 542.496094 369.082031 C 548.402344 369.800781 555.292969 369.648438 560.878906 367.457031 C 563.144531 366.425781 565.339844 365.277344 567.519531 364.078125 C 570.988281 362.199219 570.988281 362.199219 572.9375 361.601562 " fill-opacity="1" fill-rule="nonzero"/><path fill="#0196a8" d="M 760.457031 499.199219 C 760.339844 499.644531 760.222656 500.085938 760.105469 500.542969 C 758.746094 505.824219 757.648438 511.128906 756.617188 516.480469 C 754.054688 516.480469 754.054688 516.480469 752.777344 515.839844 C 753.199219 512.46875 753.886719 509.246094 754.738281 505.960938 L 755.097656 504.542969 C 755.390625 503.398438 755.679688 502.257812 755.976562 501.121094 L 754.683594 501.988281 C 744.542969 508.636719 744.542969 508.636719 738.574219 509.320312 L 736.136719 509.441406 L 735.496094 508.160156 L 736.648438 507.875 C 742.171875 506.378906 746.882812 503.855469 751.535156 500.558594 C 754.382812 498.707031 757.167969 498.898438 760.457031 499.199219 " fill-opacity="1" fill-rule="nonzero"/><path fill="#e86401" d="M 455.175781 362.238281 L 453.894531 364.800781 L 452.617188 364.800781 L 452.617188 366.078125 C 448.039062 369.511719 442.867188 371.546875 437.257812 372.480469 C 430.9375 372.832031 425.5625 372.410156 419.816406 369.71875 C 417.261719 368.382812 415.449219 366.984375 413.578125 364.800781 L 414.214844 363.519531 L 414.953125 364.453125 C 416.34375 365.945312 417.570312 366.960938 419.335938 368 C 425.691406 369.746094 433.5 369.941406 439.90625 368.578125 C 444.207031 367.21875 448.179688 364.898438 452.121094 362.742188 C 453.257812 362.238281 453.257812 362.238281 455.175781 362.238281 " fill-opacity="1" fill-rule="nonzero"/><path fill="#0198aa" d="M 424.457031 127.359375 L 425.738281 127.359375 C 425.101562 129.46875 424.425781 130.589844 422.875 132.1875 C 422.234375 132.757812 421.585938 133.320312 420.9375 133.878906 C 420.238281 134.503906 419.542969 135.128906 418.847656 135.753906 C 417.570312 136.894531 416.289062 138.03125 415.003906 139.164062 C 410.71875 143.15625 407.84375 147.421875 405.894531 152.960938 C 404.417969 157.8125 403.207031 162.738281 402.054688 167.679688 L 400.777344 167.039062 C 401.175781 158.527344 403.628906 150.136719 407.816406 142.71875 C 409.136719 140.796875 410.617188 139.214844 412.296875 137.601562 L 413.246094 136.679688 C 420.40625 129.800781 420.40625 129.800781 424.457031 127.359375 " fill-opacity="1" fill-rule="nonzero"/><path fill="#e86401" d="M 398.855469 366.078125 L 400.777344 366.078125 C 400.597656 367.273438 400.597656 367.273438 400.136719 368.640625 C 396.679688 371.339844 392.078125 372.039062 387.859375 372.699219 C 380.8125 373.613281 374.089844 373.40625 367.4375 370.644531 C 366.589844 370.21875 365.753906 369.761719 364.9375 369.28125 L 365.578125 368 L 367.730469 368.417969 L 370.617188 368.960938 L 372.027344 369.238281 C 377.941406 370.328125 383.539062 369.984375 389.457031 369.082031 L 391.136719 368.851562 C 394.167969 368.398438 396.273438 367.8125 398.855469 366.078125 M 656.457031 302.921875 L 657.917969 303.074219 C 659.417969 303.375 660.5625 303.898438 661.894531 304.640625 L 661.894531 307.839844 L 660.335938 306.839844 C 658.203125 305.980469 657.402344 305.789062 655.214844 305.960938 C 652.90625 306.335938 650.855469 306.929688 648.859375 308.210938 C 645.90625 310.78125 644.09375 314.226562 642.816406 317.878906 C 642.167969 320.042969 641.703125 322.242188 641.417969 324.480469 L 639.496094 324.480469 C 639.847656 319.191406 640.9375 314.164062 643.5625 309.503906 C 645.070312 307.332031 646.585938 305.726562 648.855469 304.359375 C 651.59375 303.09375 653.457031 302.574219 656.457031 302.917969 " fill-opacity="1" fill-rule="nonzero"/><path fill="#0198aa" d="M 527.214844 441.359375 L 529.019531 441.304688 L 530.695312 441.601562 C 532.195312 442.894531 532.195312 442.894531 533.257812 444.160156 L 531.800781 444.046875 C 528.269531 443.890625 525.378906 443.96875 522.136719 445.480469 C 519.25 447.128906 517.097656 449.007812 515.335938 451.839844 C 514.160156 454.308594 513.417969 456.867188 512.777344 459.519531 L 511.496094 459.519531 C 511.65625 455.683594 512.09375 452.191406 513.777344 448.710938 C 515.496094 446.183594 517.867188 444.457031 520.457031 442.878906 C 522.765625 441.773438 524.660156 441.394531 527.214844 441.359375 " fill-opacity="1" fill-rule="nonzero"/><path fill="#087c8d" d="M 704.976562 444.761719 L 706.597656 444.769531 C 707.910156 444.777344 709.222656 444.789062 710.535156 444.800781 L 709.894531 446.078125 C 707.558594 446.410156 705.242188 446.617188 702.890625 446.796875 C 698.84375 447.167969 695.316406 447.945312 691.84375 450.195312 C 689.757812 452.074219 688.132812 453.769531 686.855469 456.320312 L 685.578125 455.679688 C 685.878906 454.007812 686.160156 452.730469 686.855469 451.199219 C 688.75 448.980469 691.007812 447.398438 693.65625 446.199219 C 697.507812 444.84375 700.9375 444.71875 704.976562 444.761719 M 350.214844 412.160156 L 351.496094 412.160156 C 351.144531 414.320312 350.820312 415.414062 349.578125 417.28125 C 347.765625 417.882812 346.667969 418 344.796875 417.992188 L 343.046875 417.992188 L 341.167969 417.984375 L 339.238281 417.980469 C 337.207031 417.976562 335.171875 417.96875 333.136719 417.960938 C 331.757812 417.957031 330.378906 417.953125 329 417.953125 C 325.617188 417.945312 322.238281 417.933594 318.855469 417.921875 L 318.214844 416.640625 L 319.292969 416.628906 C 322.988281 416.585938 326.683594 416.535156 330.378906 416.472656 C 331.757812 416.449219 333.140625 416.433594 334.519531 416.417969 C 336.5 416.398438 338.484375 416.363281 340.464844 416.328125 L 342.335938 416.316406 L 344.082031 416.277344 L 345.617188 416.253906 C 347.085938 416.074219 347.085938 416.074219 348.441406 415.140625 C 349.742188 414.09375 349.742188 414.09375 350.214844 412.160156 M 613.820312 499.054688 L 615.175781 499.199219 L 615.175781 503.679688 L 613.894531 503.679688 L 613.894531 500.480469 L 612.25 501.628906 C 607.132812 505.109375 602.089844 508.035156 595.976562 509.441406 C 594.441406 509.195312 594.441406 509.195312 593.417969 508.800781 C 595.382812 507.773438 597.386719 506.964844 599.457031 506.160156 C 603.332031 504.578125 606.652344 502.527344 610.113281 500.207031 C 611.976562 499.199219 611.976562 499.199219 613.820312 499.054688 M 929.417969 439.039062 C 930.296875 440.320312 930.296875 440.320312 930.695312 442.238281 C 930.785156 444.164062 930.773438 446.074219 930.695312 448 L 930.054688 448 L 929.679688 444.125 L 929.417969 442.878906 L 928.136719 441.601562 C 925.992188 441.308594 923.886719 441.378906 921.738281 441.601562 C 919.917969 442.316406 919.917969 442.316406 918.535156 443.519531 L 916.738281 444.921875 L 915.335938 446.078125 L 915.335938 444.160156 C 916.8125 442.09375 917.863281 440.683594 920.097656 439.480469 C 923.339844 438.609375 926.140625 438 929.417969 439.039062 " fill-opacity="1" fill-rule="nonzero"/><path fill="#e86401" d="M 402.695312 269.441406 L 404.617188 269.441406 C 404.179688 273.308594 403.546875 277.105469 402.777344 280.921875 L 402.464844 282.589844 L 402.140625 284.179688 L 401.859375 285.613281 L 401.417969 286.71875 L 399.496094 287.359375 C 399.761719 281.195312 401.195312 275.394531 402.695312 269.441406 " fill-opacity="1" fill-rule="nonzero"/><path fill="#087c8d" d="M 691.976562 632.320312 L 691.335938 633.601562 C 684.308594 634.921875 676.695312 634.304688 669.578125 634.238281 L 670.214844 632.960938 C 677.480469 632.523438 684.699219 632.222656 691.976562 632.320312 " fill-opacity="1" fill-rule="nonzero"/><path fill="#0198aa" d="M 841.738281 499.839844 L 841.097656 501.761719 C 836.808594 504.925781 832.214844 507.542969 827.015625 508.800781 L 825.097656 508.160156 C 826.566406 507.179688 827.972656 506.328125 829.535156 505.519531 L 830.835938 504.835938 C 832.136719 504.320312 832.136719 504.320312 834.695312 504.320312 L 834.695312 503.039062 C 835.628906 502.503906 836.5625 501.96875 837.496094 501.441406 L 839.070312 500.539062 C 840.457031 499.839844 840.457031 499.839844 841.738281 499.839844 M 612.660156 442.144531 C 616.148438 441.996094 618.472656 442.574219 621.578125 444.160156 L 620.9375 445.441406 L 619.65625 444.800781 C 617.257812 444 615.105469 443.855469 612.617188 444.160156 C 609.585938 444.976562 606.921875 446.277344 604.296875 448 L 604.296875 446.078125 C 606.019531 444.394531 607.347656 443.15625 609.617188 442.359375 C 610.628906 442.289062 611.644531 442.21875 612.660156 442.144531 " fill-opacity="1" fill-rule="nonzero"/><path fill="#e86401" d="M 367.496094 304 L 366.855469 307.199219 C 365.722656 307.214844 364.589844 307.230469 363.457031 307.242188 L 361.542969 307.261719 C 359.816406 307.199219 359.816406 307.199219 357.894531 306.558594 L 357.894531 305.28125 C 361.179688 303.933594 364.015625 303.859375 367.496094 304 " fill-opacity="1" fill-rule="nonzero"/><path fill="#087c8d" d="M 756.496094 441.519531 L 758.390625 441.554688 L 759.816406 441.601562 L 760.457031 442.878906 L 758.933594 442.929688 C 754.449219 443.109375 754.449219 443.109375 750.296875 444.640625 C 748.273438 446.09375 746.328125 447.640625 744.457031 449.28125 L 744.457031 447.359375 C 745.464844 446.238281 745.464844 446.238281 746.816406 445.082031 C 747.253906 444.695312 747.691406 444.3125 748.144531 443.917969 C 750.890625 441.929688 753.132812 441.4375 756.496094 441.519531 " fill-opacity="1" fill-rule="nonzero"/><path fill="#e86401" d="M 400.777344 355.199219 L 402.054688 355.199219 C 402.074219 356.308594 402.085938 357.414062 402.097656 358.519531 L 402.121094 360.386719 C 402.058594 362.148438 401.8125 363.726562 401.417969 365.441406 L 399.496094 364.800781 Z M 400.777344 355.199219 " fill-opacity="1" fill-rule="nonzero"/><path fill="#087c8d" d="M 912.578125 475.480469 L 914.144531 475.496094 L 915.335938 475.519531 L 915.976562 476.800781 L 907.015625 478.078125 L 907.65625 476.160156 C 909.5 475.546875 910.664062 475.453125 912.578125 475.480469 " fill-opacity="1" fill-rule="nonzero"/><path fill="#e86401" d="M 617.097656 262.398438 L 618.375 262.398438 L 617.738281 266.878906 L 615.816406 266.878906 C 616.375 263.839844 616.375 263.839844 617.097656 262.398438 " fill-opacity="1" fill-rule="nonzero"/></svg>